<svg width="76" height="17" viewBox="0 0 76 17" fill="none" xmlns="http://www.w3.org/2000/svg">
<path d="M76.0001 5.49522L75.88 5.8117C75.7623 6.12818 75.6787 6.31399 75.5657 6.56933C75.4939 6.72757 75.4116 6.91338 75.2974 7.18191L72.8798 13.3161C72.4573 14.4082 71.6145 15.034 70.5741 15.034C70.2139 15.034 69.789 14.9225 69.5501 14.8218L69.3335 14.7283L69.4312 14.5053C69.7678 13.7704 69.9844 13.5331 70.6859 13.4743C70.9519 13.4528 71.2414 13.1327 71.4451 12.6364L71.5475 12.3823L69.3582 7.17951C69.2417 6.90139 69.1546 6.68561 69.0663 6.46863C68.9816 6.26604 68.8992 6.06704 68.7944 5.82009L68.6567 5.49402H69.7349C70.3587 5.49402 70.6341 5.69062 70.873 6.31279C70.873 6.31279 72.0771 9.3721 72.1677 9.59507C72.2548 9.82044 72.3608 10.3587 72.3608 10.3587L72.4161 10.3551C72.4161 10.3551 72.4938 9.87439 72.5868 9.59387C72.6821 9.31575 73.7543 6.32118 73.7543 6.32118C73.9791 5.7074 74.2852 5.49402 74.9196 5.49402H76.0001V5.49522Z" fill="#E51A4B"/>
<path d="M62.5247 5.4137C61.7926 5.4137 60.8887 6.05864 60.6898 6.88341C60.6898 6.87382 60.6898 6.48182 60.6898 6.38951C60.6898 5.95315 60.4344 5.49402 59.6293 5.49402H59.0278V12.6424H60.7321V9.67659C60.7321 9.23543 60.7769 8.86501 60.8757 8.54013C61.1311 7.6878 61.762 7.13755 62.4835 7.13755C62.6589 7.13755 62.8048 7.16992 62.8048 7.16992L63.0861 7.23705V5.47364L62.8919 5.44367C62.886 5.44367 62.706 5.4137 62.5247 5.4137Z" fill="#E51A4B"/>
<path d="M67.4704 5.4137C66.7407 5.4137 65.8402 6.05864 65.639 6.88341C65.639 6.87382 65.639 6.48182 65.639 6.38951C65.639 5.95315 65.3871 5.49402 64.5797 5.49402H63.9771V12.6424H65.6814V9.67659C65.6814 9.23543 65.7284 8.86501 65.8249 8.54013C66.0804 7.6878 66.7124 7.13755 67.4339 7.13755C67.6105 7.13755 67.7552 7.16992 67.7552 7.16992L68.0354 7.23705V5.47364L67.8435 5.44367C67.8341 5.44367 67.6552 5.4137 67.4704 5.4137Z" fill="#E51A4B"/>
<path d="M31.6414 5.57788C29.5169 5.57788 27.915 7.17706 27.915 9.29772C27.915 11.434 29.5158 13.0451 31.6414 13.0451C33.7389 13.0451 35.382 11.398 35.382 9.29772C35.382 7.17706 33.7753 5.57788 31.6414 5.57788ZM31.6414 11.4663C30.5033 11.4663 29.6429 10.5337 29.6429 9.29772C29.6429 8.07496 30.5021 7.15429 31.6414 7.15429C32.7878 7.15429 33.6529 8.07615 33.6529 9.29772C33.6518 10.5337 32.7878 11.4663 31.6414 11.4663Z" fill="#E51A4B"/>
<path d="M23.9166 5.5779C22.9538 5.5779 22.2935 5.9771 21.9086 6.31756H21.8592C21.8592 6.31756 21.9086 5.92555 21.9086 5.52755C21.9086 5.12836 21.9086 4.17532 21.9086 4.17532C21.9086 3.44766 21.5626 3.09521 20.8552 3.09521H20.2031V9.35888C20.2879 11.633 21.6709 13.0463 23.8165 13.0463C25.7927 13.0463 27.284 11.4412 27.284 9.31213C27.284 7.18188 25.8363 5.5779 23.9166 5.5779ZM23.6341 11.4783C22.5383 11.4783 21.8392 10.3886 21.8392 9.3349C21.8392 7.73572 22.8396 7.1663 23.6588 7.1663C24.5969 7.1663 25.5656 7.97428 25.5656 9.32291C25.5656 10.6739 24.5828 11.4783 23.6341 11.4783Z" fill="#E51A4B"/>
<path d="M46.9512 5.5779C45.9873 5.5779 45.3282 5.9771 44.9409 6.31756H44.8927C44.8927 6.31756 44.9409 5.92555 44.9409 5.52755C44.9409 5.12836 44.9409 4.17532 44.9409 4.17532C44.9409 3.44766 44.5972 3.09521 43.8899 3.09521H43.2378V9.35888C43.3214 11.633 44.7067 13.0463 46.8465 13.0463C48.825 13.0463 50.3163 11.4412 50.3163 9.31213C50.3175 7.18188 48.8709 5.5779 46.9512 5.5779ZM46.6676 11.4783C45.573 11.4783 44.8738 10.3886 44.8738 9.3349C44.8738 7.73572 45.8743 7.1663 46.6935 7.1663C47.6327 7.1663 48.6014 7.97428 48.6014 9.32291C48.6014 10.6739 47.6186 11.4783 46.6676 11.4783Z" fill="#E51A4B"/>
<path d="M41.3755 11.3202L39.9902 9.06764L41.1695 7.26106C41.3837 6.9314 41.5521 6.69523 41.7298 6.44709C41.8593 6.26727 41.9911 6.08505 42.137 5.86687L42.3854 5.50244H41.1001C40.3774 5.50244 40.1079 5.66308 39.7218 6.31882C39.7218 6.31882 39.2028 7.19753 39.1298 7.321C39.0615 7.44208 38.8826 7.85087 38.8791 7.86166H38.832C38.832 7.86166 38.6719 7.48284 38.5742 7.321C38.4801 7.15677 37.9763 6.31522 37.9763 6.31522C37.5691 5.66308 37.296 5.50244 36.6016 5.50244H35.3198L35.5799 5.87047C35.8895 6.31882 36.0684 6.58255 36.3356 6.97815L37.7091 9.07003L36.5427 11.042C36.3273 11.3681 36.1602 11.6079 35.9801 11.856C35.8495 12.037 35.72 12.2169 35.5717 12.4326L35.3257 12.8007H36.611C37.3325 12.8007 37.6032 12.6424 37.9904 11.9867C37.9904 11.9867 38.5072 11.1104 38.5801 10.9845C38.6484 10.8634 38.8285 10.4534 38.8344 10.4438H38.8814C38.8814 10.4438 39.0403 10.8203 39.1369 10.9845C39.2334 11.1463 39.7359 11.9903 39.7359 11.9903C40.1444 12.6424 40.4151 12.8007 41.1107 12.8007H42.3913L42.13 12.4326C41.8192 11.9831 41.6403 11.7194 41.3755 11.3202Z" fill="#E51A4B"/>
<path d="M56.8132 10.849C56.619 10.849 56.4412 10.9329 56.267 11.0132L56.2411 11.024C55.8798 11.1942 55.4396 11.4016 54.9182 11.4016C54.0307 11.4016 52.882 10.843 52.7808 9.61543C52.7808 9.61543 57.6288 9.61543 57.6877 9.61543C57.7183 9.38166 57.7359 9.03881 57.7359 8.8554C57.7359 6.84383 56.4342 5.4928 54.5086 5.4928C52.4512 5.4928 51.0117 7.02964 51.0117 9.22702C51.0117 11.3896 52.7172 12.96 54.8546 12.96C56.5895 12.96 57.5594 11.8763 57.6006 11.8344L57.7171 11.7157L57.6477 11.5635C57.4899 11.2326 57.2593 10.849 56.8132 10.849ZM54.6287 6.85702C55.3549 6.85702 56.1187 7.31376 56.1187 8.28238H52.7961C52.909 7.54033 53.6494 6.85702 54.6287 6.85702Z" fill="#E51A4B"/>
<path d="M6.93718 13.6713C7.67987 12.9113 8.88041 12.9113 9.62193 13.6713C10.367 14.4326 10.367 15.6673 9.62193 16.4286C8.88041 17.191 7.67869 17.191 6.93718 16.4286C6.19802 15.6685 6.19802 14.4326 6.93718 13.6713Z" fill="#E51A4B"/>
<path d="M10.1295 10.397C9.38913 11.1571 9.38913 12.3906 10.1295 13.1543C10.8722 13.9131 12.0751 13.9131 12.8166 13.1543C13.5569 12.3918 13.5569 11.1571 12.8166 10.397C12.0751 9.63702 10.8722 9.63702 10.1295 10.397Z" fill="#E51A4B"/>
<path d="M13.3227 7.12187C12.5812 7.8819 12.5812 9.11665 13.3227 9.87548C14.0642 10.6403 15.2671 10.6403 16.0087 9.87548C16.7478 9.11665 16.7478 7.8819 16.0087 7.12187C15.2671 6.35944 14.0642 6.35944 13.3227 7.12187Z" fill="#E51A4B"/>
<path d="M3.74931 10.397C3.00544 11.1571 3.00544 12.3918 3.74931 13.1543C4.49082 13.9131 5.69372 13.9131 6.43523 13.1543C7.17556 12.3918 7.17556 11.1571 6.43523 10.397C5.69372 9.63702 4.49082 9.63702 3.74931 10.397Z" fill="#E51A4B"/>
<path d="M0.557017 7.12187C-0.185672 7.8831 -0.185672 9.11665 0.557017 9.87548C1.29853 10.6403 2.50025 10.6403 3.24176 9.87548C3.98445 9.11665 3.98445 7.8831 3.24176 7.12187C2.50143 6.35944 1.29853 6.35944 0.557017 7.12187Z" fill="#E51A4B"/>
<path d="M6.9402 7.1215C6.20222 7.88154 6.20222 9.11629 6.9402 9.87512C7.68289 10.6399 8.88344 10.6399 9.62848 9.87512C10.37 9.11629 10.37 7.88154 9.62848 7.1215C8.88344 6.35908 7.68172 6.35908 6.9402 7.1215Z" fill="#E51A4B"/>
<path d="M3.74931 3.84685C3.00544 4.60808 3.00544 5.84163 3.74931 6.60406C4.49082 7.36529 5.69372 7.36529 6.43523 6.60406C7.17556 5.84163 7.17556 4.60808 6.43523 3.84685C5.69372 3.08442 4.49082 3.08442 3.74931 3.84685Z" fill="#E51A4B"/>
<path d="M10.1295 3.84685C9.38913 4.60808 9.38913 5.84163 10.1295 6.60406C10.8722 7.36529 12.0751 7.36529 12.8166 6.60406C13.5569 5.84163 13.5569 4.60808 12.8166 3.84685C12.0751 3.08442 10.8722 3.08442 10.1295 3.84685Z" fill="#E51A4B"/>
<path fill-rule="evenodd" clip-rule="evenodd" d="M6.93718 0.571822C7.67987 -0.190607 8.88042 -0.190607 9.62546 0.571822C10.367 1.33425 10.367 2.5666 9.62546 3.32783C8.88042 4.08906 7.67987 4.08906 6.93718 3.32783C6.19802 2.5666 6.19802 1.33305 6.93718 0.571822Z" fill="#B0CB1F"/>
</svg>
