<svg width="76" height="17" viewBox="0 0 76 17" fill="none" xmlns="http://www.w3.org/2000/svg">
<path d="M75.9995 5.39034L75.8795 5.70078C75.7618 6.01123 75.6782 6.1935 75.5652 6.44397C75.4934 6.5992 75.411 6.78147 75.2969 7.04487L72.8793 13.0621C72.4568 14.1334 71.614 14.7472 70.5736 14.7472C70.2134 14.7472 69.7885 14.6379 69.5496 14.5391L69.333 14.4474L69.4307 14.2287C69.7673 13.5078 69.9839 13.275 70.6854 13.2174C70.9514 13.1962 71.2409 12.8822 71.4446 12.3954L71.547 12.1461L69.3577 7.04252C69.2412 6.76971 69.1541 6.55804 69.0658 6.34519C68.9811 6.14646 68.8987 5.95126 68.794 5.70901L68.6562 5.38916H69.7344C70.3582 5.38916 70.6336 5.58201 70.8725 6.19232C70.8725 6.19232 72.0766 9.19331 72.1672 9.41203C72.2543 9.63311 72.3603 10.1611 72.3603 10.1611L72.4156 10.1576C72.4156 10.1576 72.4933 9.68602 72.5862 9.41085C72.6816 9.13804 73.7538 6.20055 73.7538 6.20055C73.9786 5.59848 74.2847 5.38916 74.9191 5.38916H75.9995V5.39034Z" fill="#E51A4B"/>
<path d="M62.5262 5.31055C61.7941 5.31055 60.8901 5.9432 60.6912 6.75224C60.6912 6.74283 60.6912 6.3583 60.6912 6.26776C60.6912 5.83972 60.4358 5.38933 59.6307 5.38933H59.0293V12.4014H60.7336V9.49217C60.7336 9.05942 60.7783 8.69606 60.8772 8.37738C61.1326 7.54129 61.7635 7.00154 62.485 7.00154C62.6603 7.00154 62.8063 7.03329 62.8063 7.03329L63.0876 7.09914V5.36934L62.8934 5.33995C62.8875 5.33995 62.7074 5.31055 62.5262 5.31055Z" fill="#E51A4B"/>
<path d="M67.4679 5.31055C66.7382 5.31055 65.8378 5.9432 65.6365 6.75224C65.6365 6.74283 65.6365 6.3583 65.6365 6.26776C65.6365 5.83972 65.3846 5.38933 64.5772 5.38933H63.9746V12.4014H65.6789V9.49217C65.6789 9.05942 65.726 8.69606 65.8225 8.37738C66.0779 7.54129 66.7099 7.00154 67.4314 7.00154C67.608 7.00154 67.7528 7.03329 67.7528 7.03329L68.0329 7.09914V5.36934L67.841 5.33995C67.8316 5.33995 67.6527 5.31055 67.4679 5.31055Z" fill="#E51A4B"/>
<path d="M31.6414 5.47168C29.5169 5.47168 27.915 7.04038 27.915 9.1206C27.915 11.2161 29.5158 12.7966 31.6414 12.7966C33.7388 12.7966 35.3819 11.1808 35.3819 9.1206C35.3819 7.04038 33.7753 5.47168 31.6414 5.47168ZM31.6414 11.2479C30.5033 11.2479 29.6429 10.333 29.6429 9.1206C29.6429 7.92115 30.5021 7.01803 31.6414 7.01803C32.7878 7.01803 33.6529 7.92233 33.6529 9.1206C33.6517 10.333 32.7878 11.2479 31.6414 11.2479Z" fill="#E51A4B"/>
<path d="M23.9166 5.47149C22.9538 5.47149 22.2935 5.86308 21.9086 6.19704H21.8592C21.8592 6.19704 21.9086 5.81251 21.9086 5.4221C21.9086 5.03052 21.9086 4.09565 21.9086 4.09565C21.9086 3.38186 21.5626 3.03613 20.8552 3.03613H20.2031V9.18039C20.2879 11.4111 21.6708 12.7976 23.8165 12.7976C25.7927 12.7976 27.2839 11.223 27.2839 9.13452C27.2839 7.04489 25.8362 5.47149 23.9166 5.47149ZM23.6341 11.2594C22.5383 11.2594 21.8392 10.1905 21.8392 9.15687C21.8392 7.58817 22.8396 7.0296 23.6588 7.0296C24.5969 7.0296 25.5655 7.82218 25.5655 9.14511C25.5655 10.4704 24.5827 11.2594 23.6341 11.2594Z" fill="#E51A4B"/>
<path d="M46.9507 5.47149C45.9868 5.47149 45.3277 5.86308 44.9404 6.19704H44.8922C44.8922 6.19704 44.9404 5.81251 44.9404 5.4221C44.9404 5.03052 44.9404 4.09565 44.9404 4.09565C44.9404 3.38186 44.5967 3.03613 43.8894 3.03613H43.2373V9.18039C43.3209 11.4111 44.7062 12.7976 46.846 12.7976C48.8245 12.7976 50.3158 11.223 50.3158 9.13452C50.3169 7.04489 48.8704 5.47149 46.9507 5.47149ZM46.6671 11.2594C45.5725 11.2594 44.8733 10.1905 44.8733 9.15687C44.8733 7.58817 45.8738 7.0296 46.693 7.0296C47.6322 7.0296 48.6009 7.82218 48.6009 9.14511C48.6009 10.4704 47.6181 11.2594 46.6671 11.2594Z" fill="#E51A4B"/>
<path d="M41.375 11.1043L39.9897 8.89469L41.169 7.12256C41.3832 6.79917 41.5515 6.56751 41.7293 6.3241C41.8587 6.14771 41.9906 5.96896 42.1365 5.75494L42.3848 5.39746H41.0996C40.3769 5.39746 40.1074 5.55504 39.7213 6.19827C39.7213 6.19827 39.2023 7.06023 39.1293 7.18135C39.061 7.30012 38.8821 7.70112 38.8786 7.7117H38.8315C38.8315 7.7117 38.6714 7.3401 38.5737 7.18135C38.4796 7.02025 37.9758 6.19474 37.9758 6.19474C37.5686 5.55504 37.2955 5.39746 36.6011 5.39746H35.3193L35.5795 5.75847C35.889 6.19827 36.0679 6.45698 36.3351 6.84504L37.7086 8.89704L36.5422 10.8315C36.3268 11.1513 36.1597 11.3865 35.9796 11.6299C35.849 11.8075 35.7195 11.9839 35.5712 12.1955L35.3252 12.5565H36.6105C37.332 12.5565 37.6027 12.4013 37.9899 11.7581C37.9899 11.7581 38.5066 10.8985 38.5796 10.775C38.6479 10.6562 38.828 10.2541 38.8339 10.2447H38.8809C38.8809 10.2447 39.0398 10.6139 39.1363 10.775C39.2329 10.9338 39.7354 11.7616 39.7354 11.7616C40.1438 12.4013 40.4146 12.5565 41.1102 12.5565H42.3907L42.1294 12.1955C41.8187 11.7546 41.6398 11.4959 41.375 11.1043Z" fill="#E51A4B"/>
<path d="M56.8131 10.6423C56.6189 10.6423 56.4412 10.7246 56.267 10.8034L56.2411 10.8139C55.8798 10.9809 55.4396 11.1844 54.9182 11.1844C54.0307 11.1844 52.882 10.6364 52.7807 9.43222C52.7807 9.43222 57.6288 9.43222 57.6876 9.43222C57.7182 9.20291 57.7359 8.8666 57.7359 8.68668C57.7359 6.71346 56.4341 5.38818 54.5086 5.38818C52.4512 5.38818 51.0117 6.89573 51.0117 9.05122C51.0117 11.1726 52.7172 12.7131 54.8546 12.7131C56.5895 12.7131 57.5594 11.65 57.6006 11.6089L57.7171 11.4925L57.6476 11.3431C57.4899 11.0186 57.2592 10.6423 56.8131 10.6423ZM54.6286 6.7264C55.3548 6.7264 56.1187 7.17443 56.1187 8.12458H52.796C52.909 7.39668 53.6494 6.7264 54.6286 6.7264Z" fill="#E51A4B"/>
<path d="M6.93913 13.4102C7.68182 12.6647 8.88235 12.6647 9.62386 13.4102C10.3689 14.1569 10.3689 15.3682 9.62386 16.1149C8.88235 16.8628 7.68064 16.8628 6.93913 16.1149C6.19998 15.3693 6.19998 14.1569 6.93913 13.4102Z" fill="#E51A4B"/>
<path d="M10.1295 10.1988C9.38914 10.9443 9.38914 12.1544 10.1295 12.9035C10.8722 13.6478 12.075 13.6478 12.8166 12.9035C13.5569 12.1556 13.5569 10.9443 12.8166 10.1988C12.075 9.45326 10.8722 9.45326 10.1295 10.1988Z" fill="#E51A4B"/>
<path d="M13.3227 6.98621C12.5812 7.73176 12.5812 8.94297 13.3227 9.68733C14.0642 10.4376 15.2671 10.4376 16.0086 9.68733C16.7478 8.94297 16.7478 7.73176 16.0086 6.98621C15.2671 6.23832 14.0642 6.23832 13.3227 6.98621Z" fill="#E51A4B"/>
<path d="M3.7493 10.1988C3.00544 10.9443 3.00544 12.1556 3.7493 12.9035C4.49081 13.6478 5.6937 13.6478 6.43521 12.9035C7.17554 12.1556 7.17554 10.9443 6.43521 10.1988C5.6937 9.45326 4.49081 9.45326 3.7493 10.1988Z" fill="#E51A4B"/>
<path d="M0.557014 6.98621C-0.185671 7.73293 -0.185671 8.94297 0.557014 9.68733C1.29852 10.4376 2.50024 10.4376 3.24174 9.68733C3.98443 8.94297 3.98443 7.73293 3.24174 6.98621C2.50141 6.23832 1.29852 6.23832 0.557014 6.98621Z" fill="#E51A4B"/>
<path d="M6.93923 6.98621C6.20125 7.73176 6.20125 8.94297 6.93923 9.68733C7.68191 10.4376 8.88245 10.4376 9.62749 9.68733C10.369 8.94297 10.369 7.73176 9.62749 6.98621C8.88245 6.23832 7.68073 6.23832 6.93923 6.98621Z" fill="#E51A4B"/>
<path d="M3.7493 3.77332C3.00544 4.52004 3.00544 5.73008 3.7493 6.47797C4.49081 7.22469 5.6937 7.22469 6.43521 6.47797C7.17554 5.73008 7.17554 4.52004 6.43521 3.77332C5.6937 3.02543 4.49081 3.02543 3.7493 3.77332Z" fill="#E51A4B"/>
<path d="M10.1295 3.77332C9.38914 4.52004 9.38914 5.73008 10.1295 6.47797C10.8722 7.22469 12.075 7.22469 12.8166 6.47797C13.5569 5.73008 13.5569 4.52004 12.8166 3.77332C12.075 3.02543 10.8722 3.02543 10.1295 3.77332Z" fill="#E51A4B"/>
<path fill-rule="evenodd" clip-rule="evenodd" d="M6.93913 0.56092C7.68182 -0.186973 8.88235 -0.186973 9.62739 0.56092C10.3689 1.30881 10.3689 2.51767 9.62739 3.26439C8.88235 4.01111 7.68182 4.01111 6.93913 3.26439C6.19998 2.51767 6.19998 1.30764 6.93913 0.56092Z" fill="#B0CB1F"/>
</svg>
