<svg width="76" height="21" viewBox="0 0 76 21" fill="none" xmlns="http://www.w3.org/2000/svg">
<path d="M75.9996 5.49534L75.8795 5.81182C75.7618 6.1283 75.6783 6.31411 75.5653 6.56945C75.4935 6.72769 75.4111 6.9135 75.2969 7.18203L72.8793 13.3162C72.4568 14.4083 71.6141 15.0341 70.5736 15.0341C70.2134 15.0341 69.7885 14.9226 69.5496 14.8219L69.333 14.7284L69.4307 14.5054C69.7673 13.7706 69.9839 13.5332 70.6854 13.4745C70.9514 13.4529 71.2409 13.1328 71.4446 12.6365L71.547 12.3824L69.3577 7.17964C69.2412 6.90152 69.1541 6.68574 69.0658 6.46875C68.9811 6.26616 68.8987 6.06716 68.794 5.82021L68.6562 5.49414H69.7344C70.3582 5.49414 70.6336 5.69074 70.8725 6.31291C70.8725 6.31291 72.0766 9.37222 72.1673 9.59519C72.2543 9.82057 72.3603 10.3588 72.3603 10.3588L72.4156 10.3552C72.4156 10.3552 72.4933 9.87451 72.5863 9.59399C72.6816 9.31588 73.7538 6.3213 73.7538 6.3213C73.9787 5.70752 74.2847 5.49414 74.9191 5.49414H75.9996V5.49534Z" fill="#E51A4B"/>
<path d="M62.5242 5.41406C61.7921 5.41406 60.8882 6.05901 60.6893 6.88378C60.6893 6.87419 60.6893 6.48218 60.6893 6.38988C60.6893 5.95352 60.4339 5.49438 59.6288 5.49438H59.0273V12.6428H60.7316V9.67695C60.7316 9.2358 60.7764 8.86537 60.8752 8.5405C61.1306 7.68816 61.7615 7.13792 62.483 7.13792C62.6584 7.13792 62.8043 7.17029 62.8043 7.17029L63.0857 7.23742V5.474L62.8914 5.44403C62.8856 5.44403 62.7055 5.41406 62.5242 5.41406Z" fill="#E51A4B"/>
<path d="M67.4699 5.41406C66.7402 5.41406 65.8398 6.05901 65.6385 6.88378C65.6385 6.87419 65.6385 6.48218 65.6385 6.38988C65.6385 5.95352 65.3866 5.49438 64.5792 5.49438H63.9766V12.6428H65.6809V9.67695C65.6809 9.2358 65.7279 8.86537 65.8245 8.5405C66.0799 7.68816 66.7119 7.13792 67.4334 7.13792C67.61 7.13792 67.7547 7.17029 67.7547 7.17029L68.0349 7.23742V5.474L67.843 5.44403C67.8336 5.44403 67.6547 5.41406 67.4699 5.41406Z" fill="#E51A4B"/>
<path d="M31.6405 5.57812C29.516 5.57812 27.9141 7.17731 27.9141 9.29796C27.9141 11.4342 29.5148 13.0454 31.6405 13.0454C33.7379 13.0454 35.381 11.3982 35.381 9.29796C35.381 7.17731 33.7744 5.57812 31.6405 5.57812ZM31.6405 11.4666C30.5023 11.4666 29.6419 10.5339 29.6419 9.29796C29.6419 8.0752 30.5011 7.15453 31.6405 7.15453C32.7869 7.15453 33.652 8.0764 33.652 9.29796C33.6508 10.5339 32.7869 11.4666 31.6405 11.4666Z" fill="#E51A4B"/>
<path d="M23.9166 5.57839C22.9538 5.57839 22.2935 5.97759 21.9086 6.31804H21.8592C21.8592 6.31804 21.9086 5.92604 21.9086 5.52804C21.9086 5.12885 21.9086 4.17581 21.9086 4.17581C21.9086 3.44815 21.5626 3.0957 20.8552 3.0957H20.2031V9.35937C20.2879 11.6335 21.6709 13.0468 23.8165 13.0468C25.7927 13.0468 27.284 11.4417 27.284 9.31261C27.284 7.18237 25.8363 5.57839 23.9166 5.57839ZM23.6341 11.4788C22.5383 11.4788 21.8392 10.3891 21.8392 9.33539C21.8392 7.73621 22.8396 7.16678 23.6588 7.16678C24.5969 7.16678 25.5656 7.97477 25.5656 9.3234C25.5656 10.6744 24.5828 11.4788 23.6341 11.4788Z" fill="#E51A4B"/>
<path d="M46.9517 5.57839C45.9878 5.57839 45.3286 5.97759 44.9414 6.31804H44.8931C44.8931 6.31804 44.9414 5.92604 44.9414 5.52804C44.9414 5.12885 44.9414 4.17581 44.9414 4.17581C44.9414 3.44815 44.5977 3.0957 43.8903 3.0957H43.2383V9.35937C43.3218 11.6335 44.7072 13.0468 46.847 13.0468C48.8255 13.0468 50.3168 11.4417 50.3168 9.31261C50.318 7.18237 48.8714 5.57839 46.9517 5.57839ZM46.6681 11.4788C45.5735 11.4788 44.8743 10.3891 44.8743 9.33539C44.8743 7.73621 45.8748 7.16678 46.694 7.16678C47.6332 7.16678 48.6019 7.97477 48.6019 9.3234C48.6019 10.6744 47.6191 11.4788 46.6681 11.4788Z" fill="#E51A4B"/>
<path d="M41.376 11.3197L39.9907 9.06715L41.17 7.26057C41.3842 6.93091 41.5526 6.69475 41.7303 6.4466C41.8597 6.26678 41.9916 6.08456 42.1375 5.86638L42.3859 5.50195H41.1006C40.3779 5.50195 40.1084 5.66259 39.7223 6.31833C39.7223 6.31833 39.2033 7.19704 39.1303 7.32051C39.062 7.44159 38.8831 7.85038 38.8796 7.86117H38.8325C38.8325 7.86117 38.6724 7.48235 38.5747 7.32051C38.4806 7.15628 37.9768 6.31473 37.9768 6.31473C37.5696 5.66259 37.2965 5.50195 36.6021 5.50195H35.3203L35.5804 5.86998C35.89 6.31833 36.0689 6.58206 36.3361 6.97766L37.7096 9.06955L36.5432 11.0416C36.3278 11.3676 36.1607 11.6074 35.9806 11.8555C35.85 12.0365 35.7205 12.2164 35.5722 12.4321L35.3262 12.8002H36.6115C37.333 12.8002 37.6037 12.6419 37.9909 11.9862C37.9909 11.9862 38.5076 11.1099 38.5806 10.984C38.6489 10.8629 38.829 10.4529 38.8348 10.4434H38.8819C38.8819 10.4434 39.0408 10.8198 39.1373 10.984C39.2339 11.1458 39.7364 11.9898 39.7364 11.9898C40.1449 12.6419 40.4156 12.8002 41.1112 12.8002H42.3918L42.1305 12.4321C41.8197 11.9826 41.6408 11.7189 41.376 11.3197Z" fill="#E51A4B"/>
<path d="M56.8132 10.8493C56.619 10.8493 56.4412 10.9333 56.267 11.0136L56.2411 11.0244C55.8798 11.1946 55.4396 11.402 54.9182 11.402C54.0307 11.402 52.882 10.8434 52.7808 9.61579C52.7808 9.61579 57.6288 9.61579 57.6877 9.61579C57.7183 9.38203 57.7359 9.03918 57.7359 8.85576C57.7359 6.8442 56.4342 5.49316 54.5086 5.49316C52.4512 5.49316 51.0117 7.03001 51.0117 9.22739C51.0117 11.39 52.7172 12.9604 54.8546 12.9604C56.5895 12.9604 57.5594 11.8767 57.6006 11.8348L57.7171 11.7161L57.6477 11.5638C57.4899 11.233 57.2593 10.8493 56.8132 10.8493ZM54.6287 6.85738C55.3549 6.85738 56.1187 7.31412 56.1187 8.28274H52.7961C52.909 7.54069 53.6494 6.85738 54.6287 6.85738Z" fill="#E51A4B"/>
<path d="M6.93718 13.6716C7.67987 12.9116 8.88041 12.9116 9.62193 13.6716C10.367 14.4328 10.367 15.6676 9.62193 16.4288C8.88041 17.1912 7.67869 17.1912 6.93718 16.4288C6.19802 15.6688 6.19802 14.4328 6.93718 13.6716Z" fill="#E51A4B"/>
<path d="M10.1295 10.3972C9.38913 11.1572 9.38913 12.3908 10.1295 13.1544C10.8722 13.9132 12.0751 13.9132 12.8166 13.1544C13.5569 12.392 13.5569 11.1572 12.8166 10.3972C12.0751 9.63714 10.8722 9.63714 10.1295 10.3972Z" fill="#E51A4B"/>
<path d="M13.3218 7.12163C12.5802 7.88166 12.5802 9.11641 13.3218 9.87524C14.0633 10.6401 15.2662 10.6401 16.0077 9.87524C16.7468 9.11641 16.7468 7.88166 16.0077 7.12163C15.2662 6.3592 14.0633 6.3592 13.3218 7.12163Z" fill="#E51A4B"/>
<path d="M3.74931 10.3972C3.00544 11.1572 3.00544 12.392 3.74931 13.1544C4.49082 13.9132 5.69372 13.9132 6.43523 13.1544C7.17556 12.392 7.17556 11.1572 6.43523 10.3972C5.69372 9.63714 4.49082 9.63714 3.74931 10.3972Z" fill="#E51A4B"/>
<path d="M0.557017 7.12163C-0.185672 7.88286 -0.185672 9.11641 0.557017 9.87524C1.29853 10.6401 2.50025 10.6401 3.24176 9.87524C3.98445 9.11641 3.98445 7.88286 3.24176 7.12163C2.50143 6.3592 1.29853 6.3592 0.557017 7.12163Z" fill="#E51A4B"/>
<path d="M6.9402 7.12163C6.20222 7.88166 6.20222 9.11641 6.9402 9.87524C7.68289 10.6401 8.88344 10.6401 9.62848 9.87524C10.37 9.11641 10.37 7.88166 9.62848 7.12163C8.88344 6.3592 7.68172 6.3592 6.9402 7.12163Z" fill="#E51A4B"/>
<path d="M3.74931 3.84721C3.00544 4.60844 3.00544 5.842 3.74931 6.60442C4.49082 7.36565 5.69372 7.36565 6.43523 6.60442C7.17556 5.842 7.17556 4.60844 6.43523 3.84721C5.69372 3.08478 4.49082 3.08478 3.74931 3.84721Z" fill="#E51A4B"/>
<path d="M10.1295 3.84721C9.38913 4.60844 9.38913 5.842 10.1295 6.60442C10.8722 7.36565 12.0751 7.36565 12.8166 6.60442C13.5569 5.842 13.5569 4.60844 12.8166 3.84721C12.0751 3.08478 10.8722 3.08478 10.1295 3.84721Z" fill="#E51A4B"/>
<path fill-rule="evenodd" clip-rule="evenodd" d="M6.93718 0.571822C7.67987 -0.190607 8.88042 -0.190607 9.62546 0.571822C10.367 1.33425 10.367 2.5666 9.62546 3.32783C8.88042 4.08906 7.67987 4.08906 6.93718 3.32783C6.19802 2.5666 6.19802 1.33305 6.93718 0.571822Z" fill="#B0CB1F"/>
</svg>
