<svg width="48" height="48" viewBox="0 0 48 48" fill="none" xmlns="http://www.w3.org/2000/svg">
<circle cx="24" cy="24" r="24" fill="#E6E6E6"/>
<path d="M12 16V31.3333C12 32.8061 13.1939 34 14.6667 34H35C36.1046 34 37 33.1046 37 32V20C37 18.8954 36.1046 18 35 18H14C12.8955 18 12 17.1045 12 16ZM12 16C12 14.8955 12.8955 14 14 14H22.5M14.6667 18C14.6667 18 30.3333 10 30.6667 10C31 10 34.6667 18 34.6667 18" stroke="white" stroke-width="2" stroke-linecap="round"/>
<circle cx="30.5" cy="25.5" r="1.5" fill="white"/>
</svg>
