<svg width="39" height="11" viewBox="0 0 39 11" fill="none" xmlns="http://www.w3.org/2000/svg">
<path fill-rule="evenodd" clip-rule="evenodd" d="M26.3359 11H29.1073L30.2983 7.53976L31.5366 6.4794L32.5121 9.60832C32.8135 10.5752 33.124 11 33.8015 11H35.9235L33.7346 4.86006L38.9988 0H35.5992L32.4027 3.46024C32.0306 3.8627 31.6538 4.25975 31.2765 4.73335H31.2444L32.8403 0H30.0684L26.3359 11Z" fill="#1AB248"/>
<path fill-rule="evenodd" clip-rule="evenodd" d="M26.2165 0.000677548C27.0859 0.000677548 27.9284 0.000677548 28.6347 0.0013551L28.0627 1.81719C27.8832 2.38768 27.4266 2.66073 26.4209 2.66073C24.6743 2.66073 22.0903 2.66073 20.3437 2.66006L20.9156 0.844225C21.0951 0.273052 21.5511 0 22.5575 0C23.5978 0 24.9357 0 26.2165 0.000677548ZM21.1469 4.16963C22.8935 4.16963 25.4775 4.16963 27.2241 4.17031L26.6522 5.98614C26.4727 6.55664 26.016 6.82969 25.0104 6.82969C23.2637 6.82969 20.6798 6.82969 18.9331 6.82901L19.5051 5.01318C19.6846 4.44269 20.1406 4.16963 21.1469 4.16963ZM25.7441 8.33994C23.9975 8.33994 21.4135 8.33927 19.6669 8.33927C18.6606 8.33927 18.2046 8.61232 18.0251 9.18281L17.4531 10.9993C19.1998 10.9993 21.7837 11 23.5304 11C24.536 11 24.9927 10.7269 25.1722 10.1565L25.7441 8.33994Z" fill="#1AB248"/>
<path fill-rule="evenodd" clip-rule="evenodd" d="M13.7719 2.64921L15.2591 2.64989C16.5262 2.64989 16.2373 4.23468 15.5959 5.77813C15.0305 7.13933 14.0294 8.33994 12.8344 8.33994H10.3546C9.36534 8.33994 8.90935 8.613 8.71739 9.18349L8.10547 11H9.92353L11.701 10.9851C13.2773 10.9722 14.5679 10.8577 16.0768 9.50059C17.6714 8.06689 19.5308 4.34105 19.2124 2.18645C18.9627 0.497998 18.0567 0.000677548 15.8612 0.000677548L11.8615 0L9.5324 6.82224L11.0124 6.82427C11.8929 6.82495 12.3352 6.83646 12.8036 5.57487L13.7719 2.64921Z" fill="#1AB248"/>
<path fill-rule="evenodd" clip-rule="evenodd" d="M6.93252 2.6587H5.81352C3.57222 2.66006 1.65196 8.34062 4.30207 8.33994H6.00482C6.9869 8.33994 7.71544 8.69905 7.3931 9.66658L6.94825 10.9993H5.14263L3.67377 10.9844C1.79478 10.9654 0.582084 10.0386 0.145749 8.63061C-0.326619 7.10748 0.340331 3.92978 2.27632 1.89443C3.39992 0.713459 4.95591 0 6.95087 0L10.6361 0L10.0602 1.66474C9.68812 2.74068 8.92748 2.66006 8.49311 2.66006L6.93252 2.6587Z" fill="#1AB248"/>
</svg>
