<svg width="39" height="11" viewBox="0 0 39 11" fill="none" xmlns="http://www.w3.org/2000/svg">
<path fill-rule="evenodd" clip-rule="evenodd" d="M26.3369 10.6365H29.1082L30.2993 7.29062L31.5376 6.2653L32.5131 9.29083C32.8145 10.2257 33.125 10.6365 33.8025 10.6365H35.9245L33.7356 4.69947L38.9999 0H35.6002L32.4037 3.3459C32.0316 3.73507 31.6549 4.11899 31.2775 4.57695H31.2454L32.8413 0H30.0694L26.3369 10.6365Z" fill="#1AB248"/>
<path fill-rule="evenodd" clip-rule="evenodd" d="M26.2185 0.00065516C27.0879 0.00065516 27.9304 0.00065516 28.6367 0.00131032L28.0647 1.75714C27.8852 2.30878 27.4286 2.57281 26.4229 2.57281C24.6763 2.57281 22.0923 2.57281 20.3456 2.57216L20.9176 0.81633C21.0971 0.26403 21.5531 0 22.5594 0C23.5998 0 24.9377 0 26.2185 0.00065516ZM21.1489 4.03186C22.8955 4.03186 25.4795 4.03186 27.2261 4.03251L26.6542 5.78834C26.4747 6.33999 26.018 6.60402 25.0124 6.60402C23.2657 6.60402 20.6817 6.60402 18.9351 6.60336L19.507 4.84753C19.6866 4.29589 20.1425 4.03186 21.1489 4.03186ZM25.7461 8.06437C23.9995 8.06437 21.4155 8.06371 19.6689 8.06371C18.6625 8.06371 18.2065 8.32774 18.027 8.87939L17.4551 10.6359C19.2017 10.6359 21.7857 10.6365 23.5323 10.6365C24.538 10.6365 24.9947 10.3725 25.1742 9.82085L25.7461 8.06437Z" fill="#1AB248"/>
<path fill-rule="evenodd" clip-rule="evenodd" d="M13.77 2.56168L15.2572 2.56233C16.5243 2.56233 16.2354 4.09475 15.594 5.58721C15.0286 6.90342 14.0275 8.06437 12.8325 8.06437H10.3527C9.36339 8.06437 8.9074 8.3284 8.71544 8.88004L8.10352 10.6365H9.92159L11.699 10.6221C13.2754 10.6097 14.566 10.4989 16.0749 9.18666C17.6695 7.80034 19.5289 4.19761 19.2104 2.1142C18.9608 0.481543 18.0547 0.00065516 15.8593 0.00065516L11.8595 0L9.53045 6.59681L11.0105 6.59877C11.891 6.59943 12.3332 6.61057 12.8017 5.39066L13.77 2.56168Z" fill="#1AB248"/>
<path fill-rule="evenodd" clip-rule="evenodd" d="M6.93256 2.57085H5.81354C3.57224 2.57216 1.65196 8.06502 4.30209 8.06437H6.00485C6.98694 8.06437 7.71547 8.4116 7.39313 9.34717L6.94828 10.6359H5.14266L3.67379 10.6215C1.79479 10.6031 0.582087 9.70685 0.14575 8.34543C-0.326621 6.87263 0.340333 3.79993 2.27633 1.83183C3.39993 0.689884 4.95594 0 6.9509 0L10.6362 0L10.0603 1.60973C9.68816 2.65012 8.92752 2.57216 8.49315 2.57216L6.93256 2.57085Z" fill="#1AB248"/>
</svg>
