<svg width="9" height="7" viewBox="0 0 9 7" fill="none" xmlns="http://www.w3.org/2000/svg">
<path d="M8.33354 1.50601L8.33346 1.50592L8.32568 1.51386L7.25425 2.60761L3.61139 6.32636L3.6113 6.32627L3.60371 6.33438C3.50795 6.43658 3.37353 6.5 3.21429 6.5C3.05504 6.5 2.92063 6.43658 2.82486 6.33438L2.82495 6.33429L2.81718 6.32636L0.674322 4.13886L0.67441 4.13877L0.666459 4.13101C0.566281 4.03319 0.5 3.89118 0.5 3.71875C0.5 3.38137 0.765811 3.125 1.07143 3.125C1.23068 3.125 1.36509 3.18842 1.46085 3.29062L1.46076 3.29071L1.46854 3.29864L2.85711 4.71614L3.21429 5.08076L3.57147 4.71614L6.46004 1.76739L7.53147 0.67364L7.53155 0.673726L7.53915 0.665624C7.63491 0.563419 7.76932 0.5 7.92857 0.5C8.23419 0.5 8.5 0.756373 8.5 1.09375C8.5 1.2596 8.43219 1.40969 8.33354 1.50601Z" fill="#F7941E" stroke="#F7941E"/>
</svg>
