<svg width="10" height="10" viewBox="0 0 10 10" fill="none" xmlns="http://www.w3.org/2000/svg">
<path fill-rule="evenodd" clip-rule="evenodd" d="M6.41855 5.00501L9.70677 1.71679C10.0977 1.32581 10.0977 0.694236 9.70677 0.303258C9.31579 -0.0877193 8.68421 -0.0877193 8.29323 0.303258L5.00501 3.58145L1.71679 0.293233C1.32581 -0.0977444 0.694236 -0.0977444 0.303258 0.293233C-0.0877193 0.68421 -0.0877193 1.31579 0.303258 1.70677L3.59148 4.99499L0.293233 8.29323C-0.0977444 8.68421 -0.0977444 9.31579 0.293233 9.70677C0.68421 10.0977 1.31579 10.0977 1.70677 9.70677L5.00501 6.41855L8.29323 9.70677C8.68421 10.0977 9.31579 10.0977 9.70677 9.70677C10.0977 9.31579 10.0977 8.68421 9.70677 8.29323L6.41855 5.00501Z" fill="#333333"/>
</svg>
