<svg width="40" height="18" viewBox="0 0 40 18" fill="none" xmlns="http://www.w3.org/2000/svg">
<path fill-rule="evenodd" clip-rule="evenodd" d="M7.20101 0.0833388C7.36377 -0.0154323 7.57245 -0.0237792 7.74773 0.0443868C7.84789 0.0930768 7.94388 0.150114 8.04265 0.202977C10.2434 1.40214 12.4428 2.60131 14.6436 3.80047C14.3251 3.99106 14.0023 4.17469 13.681 4.3625C12.3761 5.12345 11.0698 5.88301 9.76489 6.64397C9.68003 6.69266 9.62856 6.79421 9.63829 6.89159C9.64247 7.04323 9.64386 7.19486 9.64942 7.3465C9.65916 7.43136 9.70646 7.51343 9.77602 7.56491C9.88453 7.63029 9.99443 7.69567 10.1043 7.75967C10.153 7.7861 10.1975 7.82227 10.2518 7.83479C10.3144 7.8487 10.3839 7.84453 10.441 7.81114C11.9685 6.92081 13.4973 6.03048 15.0248 5.14014C15.0248 7.69985 15.0248 10.2596 15.0248 12.8193C15.0331 12.982 14.958 13.1392 14.8481 13.2547C14.7939 13.3131 14.7215 13.3479 14.6548 13.3882C12.3802 14.7293 10.1071 16.0704 7.83259 17.41C7.77416 17.4476 7.71156 17.4782 7.642 17.4907C7.50289 17.5171 7.35125 17.506 7.22883 17.4323C4.94319 16.0843 2.65615 14.7349 0.369107 13.3868C0.300941 13.3451 0.22721 13.3103 0.171564 13.2491C0.0672287 13.1364 -0.0065019 12.9848 0.000453816 12.829C0.00184496 10.2665 0.00184496 7.70402 0.00184496 5.14014C2.2555 6.45199 4.50776 7.76384 6.76141 9.0743C6.80871 9.10073 6.83931 9.15637 6.83931 9.21202C6.83931 11.1429 6.83931 13.0738 6.83931 15.0047C6.84071 15.0979 6.89774 15.1884 6.98121 15.2301C7.09946 15.2955 7.2191 15.3609 7.33734 15.4276C7.40134 15.4708 7.47785 15.4889 7.55436 15.4791C7.61975 15.4763 7.674 15.436 7.72965 15.4068C7.83676 15.347 7.94527 15.2871 8.05239 15.2273C8.13586 15.1828 8.19151 15.0896 8.18872 14.995C8.18872 12.8276 8.18872 10.6588 8.18872 8.49141C8.18872 8.39959 8.13586 8.30917 8.05378 8.26604C5.49547 6.77752 2.93855 5.28761 0.381627 3.80047C2.65336 2.55957 4.92788 1.32285 7.20101 0.0833388Z" fill="#D50032"/>
<path fill-rule="evenodd" clip-rule="evenodd" d="M24.2563 3.80176C24.8267 3.80176 25.3956 3.80176 25.966 3.80176C25.966 6.0262 25.966 8.25202 25.966 10.4765C25.9646 11.2792 25.9674 12.0818 25.9646 12.8831C25.5501 12.9889 25.1272 13.0598 24.7015 13.1071C24.216 13.16 23.7277 13.1864 23.2394 13.1795C22.7163 13.1683 22.1918 13.0876 21.7008 12.904C21.2194 12.7246 20.7729 12.4352 20.4404 12.0401C20.2554 11.8217 20.1051 11.5741 19.9938 11.3111C19.8505 10.9717 19.7699 10.6072 19.7406 10.24C19.7128 9.89497 19.7226 9.54579 19.7782 9.20357C19.8366 8.84326 19.9479 8.4913 20.119 8.16717C20.2665 7.88755 20.4585 7.63018 20.688 7.41177C20.9036 7.20449 21.1527 7.03338 21.4211 6.89983C21.9873 6.61882 22.6314 6.51727 23.2588 6.5437C23.5593 6.55761 23.864 6.58822 24.1478 6.69255C24.1853 6.70647 24.2201 6.72177 24.2563 6.73985C24.2563 5.76049 24.2563 4.78112 24.2563 3.80176ZM22.3184 8.24368C22.0513 8.37723 21.826 8.59286 21.6841 8.85578C21.5366 9.12427 21.4726 9.43171 21.4629 9.73637C21.4531 10.0716 21.499 10.4153 21.6382 10.7227C21.7453 10.9606 21.9094 11.172 22.1181 11.3306C22.3365 11.4962 22.5953 11.6033 22.8624 11.6589C23.0822 11.7062 23.3089 11.7201 23.5329 11.7146C23.775 11.709 24.017 11.6909 24.2549 11.645C24.2549 10.514 24.2549 9.38442 24.2549 8.25342C23.953 8.11152 23.6164 8.06283 23.2853 8.05448C22.9556 8.04196 22.6161 8.09343 22.3184 8.24368Z" fill="#414042"/>
<path fill-rule="evenodd" clip-rule="evenodd" d="M38.2901 3.80176C38.8605 3.80176 39.4308 3.80176 39.9998 3.80176C39.9998 6.82889 39.9998 9.85601 39.9998 12.8831C39.5964 12.9889 39.1846 13.0556 38.77 13.1043C38.2748 13.16 37.7768 13.1878 37.2787 13.1808C36.8183 13.1711 36.3578 13.1085 35.9182 12.9694C35.5815 12.8623 35.2588 12.7079 34.9722 12.502C34.7135 12.3156 34.4867 12.086 34.3059 11.8245C34.0722 11.4878 33.9177 11.0983 33.8357 10.6977C33.7522 10.2887 33.7369 9.86714 33.7772 9.45258C33.8162 9.06306 33.9122 8.67771 34.0763 8.32158C34.2099 8.03083 34.3879 7.76095 34.6077 7.52863C34.8289 7.29214 35.0905 7.09459 35.377 6.94296C35.889 6.67169 36.4705 6.54927 37.0464 6.5437C37.2774 6.54231 37.5097 6.55344 37.7392 6.58822C37.9284 6.61743 38.1176 6.66056 38.2901 6.74263C38.2887 5.7591 38.2901 4.78112 38.2901 3.80176ZM36.4621 8.1936C36.1895 8.30489 35.9474 8.49687 35.786 8.74449C35.5885 9.04219 35.505 9.4025 35.4981 9.75724C35.4897 10.144 35.5579 10.5432 35.7554 10.8799C35.9112 11.1484 36.1505 11.3654 36.4301 11.5003C36.7849 11.6742 37.1883 11.7271 37.5806 11.7146C37.8185 11.709 38.0578 11.6909 38.2915 11.645C38.2915 11.0329 38.2915 10.4194 38.2915 9.80732C38.2901 9.28843 38.2943 8.76814 38.2901 8.24924C37.9423 8.09204 37.5556 8.04753 37.1772 8.05309C36.931 8.05866 36.6875 8.10039 36.4621 8.1936Z" fill="#414042"/>
<path fill-rule="evenodd" clip-rule="evenodd" d="M28.0959 6.71474C28.5911 6.60901 29.0975 6.54919 29.6039 6.54084C30.0254 6.53389 30.4483 6.57145 30.8573 6.67578C31.1981 6.76204 31.5278 6.89419 31.8269 7.07783C32.0982 7.24476 32.343 7.45622 32.5434 7.70384C32.7715 7.98485 32.9412 8.31177 33.047 8.65677C33.1708 9.05186 33.2125 9.47059 33.1986 9.88376C33.1847 10.3428 33.1123 10.8019 32.9482 11.2318C32.8216 11.5629 32.6394 11.8745 32.4015 12.1402C32.1775 12.392 31.9034 12.6007 31.6057 12.7565C31.0632 13.0417 30.4469 13.1599 29.839 13.178C29.7527 13.1794 29.6651 13.1836 29.5788 13.178C29.5816 12.68 29.5788 12.1819 29.5802 11.6839C29.9809 11.6783 30.3927 11.5921 30.7293 11.3681C30.9714 11.2095 31.1647 10.9786 31.283 10.7143C31.3734 10.5153 31.4249 10.2997 31.4471 10.0813C31.4847 9.70291 31.4569 9.30505 31.2872 8.95726C31.1592 8.68738 30.9449 8.46062 30.6834 8.31594C30.4942 8.20882 30.2828 8.14205 30.0671 8.10727C29.8348 8.06971 29.5983 8.07388 29.3632 8.08919C29.1225 8.10866 28.8805 8.14622 28.6537 8.23386C28.6537 10.6906 28.6537 13.1474 28.6537 15.6041C28.0792 15.6041 27.5033 15.6041 26.9287 15.6041C26.9287 12.7579 26.9287 9.91158 26.9287 7.0653C27.3071 6.91367 27.698 6.7996 28.0959 6.71474Z" fill="#414042"/>
</svg>
