<svg width="48" height="48" viewBox="0 0 48 48" fill="none" xmlns="http://www.w3.org/2000/svg">
<circle cx="24" cy="24" r="24" fill="#F7941E"/>
<path d="M35.1378 26.2491C34.6079 25.6969 33.9479 25.4062 33.2179 25.4062H32.9179C31.548 25.4159 30.4581 25.4256 29.4581 23.9144C29.1581 23.4688 28.5382 23.3331 28.0782 23.6238C27.6182 23.9144 27.4782 24.515 27.7782 24.9606C29.3681 27.3631 31.418 27.3534 32.9379 27.3438H33.2179C33.3379 27.3438 33.4779 27.3728 33.6679 27.5666C34.8378 28.7775 35.0778 33.0884 34.9678 36.0625H31.998V29.2812C31.998 28.7484 31.548 28.3125 30.998 28.3125C30.4481 28.3125 29.9981 28.7484 29.9981 29.2812V30.6666C26.4383 32.6816 21.5585 32.6816 17.9987 30.6666V29.2812C17.9987 28.7484 17.5487 28.3125 16.9987 28.3125C16.4488 28.3125 15.9988 28.7484 15.9988 29.2812V36.0625H13.0189C12.8989 33.0884 13.1489 28.7872 14.3189 27.5666C14.5089 27.3728 14.6589 27.3438 14.7789 27.3438H15.0588C16.5688 27.3534 18.6287 27.3631 20.2186 24.9606C20.5186 24.515 20.3786 23.9144 19.9186 23.6238C19.4486 23.3331 18.8386 23.4688 18.5387 23.9144C17.5387 25.4256 16.4388 25.4256 15.0688 25.4062H14.7689C14.0489 25.4062 13.3889 25.6969 12.859 26.2491C10.5491 28.6419 11.019 36.2369 11.079 37.0991C11.119 37.6028 11.549 38 12.079 38H35.9278C36.4578 38 36.8877 37.6028 36.9277 37.0991C36.9777 36.2369 37.4477 28.6419 35.1378 26.2491ZM29.9981 36.0625H17.9987V32.8559C19.8486 33.6891 21.9185 34.1153 23.9984 34.1153C26.0783 34.1153 28.1482 33.6891 29.9981 32.8559V36.0625ZM16.9987 16.6875H18.0387C18.3587 21.105 20.8585 24.4375 23.9984 24.4375C27.1382 24.4375 29.6381 21.105 29.9581 16.6875H30.998C31.548 16.6875 31.998 16.2516 31.998 15.7188C31.998 15.1859 31.548 14.75 30.998 14.75H30.978C30.828 10.72 29.6281 8.29813 24.9983 7.99781V7.96875C24.9983 7.43594 24.5484 7 23.9984 7C23.4484 7 22.9984 7.43594 22.9984 7.96875V7.99781C18.3387 8.27875 17.1587 10.6231 17.0187 14.75H16.9987C16.4488 14.75 15.9988 15.1859 15.9988 15.7188C15.9988 16.2516 16.4488 16.6875 16.9987 16.6875ZM23.9984 22.5C22.0285 22.5 20.2886 19.9231 19.9986 16.6875H27.9982C27.7082 19.9231 25.9683 22.5 23.9984 22.5ZM22.9984 9.90625V11.8438C22.9984 12.3766 23.4484 12.8125 23.9984 12.8125C24.5484 12.8125 24.9983 12.3766 24.9983 11.8438V9.90625C27.9182 10.0903 28.8681 11.2625 28.9981 14.75H18.9986C19.1186 11.2141 20.0386 10.0806 22.9984 9.90625Z" fill="white"/>
</svg>
