<svg xmlns="http://www.w3.org/2000/svg" width="12" height="12" viewBox="0 0 12 12"><g><g><path fill="#fff" d="M10.204 11.998H1.8a1.8 1.8 0 0 1-1.8-1.8V1.793a1.8 1.8 0 0 1 1.8-1.8h8.404a1.8 1.8 0 0 1 1.8 1.8v8.403a1.8 1.8 0 0 1-1.8 1.801zm-.312-6.001a.649.649 0 0 0-.649-.649H2.761a.649.649 0 0 0 0 1.297h6.482c.359 0 .649-.29.649-.648zm0 3a.648.648 0 0 0-.649-.649H2.761a.648.648 0 0 0 0 1.297h6.482c.359 0 .649-.29.649-.648zM6.009 2.994a.649.649 0 0 0-.649-.648H2.767a.649.649 0 0 0 0 1.297H5.36c.358 0 .649-.29.649-.65z"/></g></g></svg>