<svg width="48" height="48" viewBox="0 0 48 48" fill="none" xmlns="http://www.w3.org/2000/svg">
<circle cx="24" cy="24" r="24" fill="#E6E6E6"/>
<path d="M10.668 17.9997C10.668 16.5269 11.8619 15.333 13.3346 15.333H34.668C36.1408 15.333 37.3346 16.5269 37.3346 17.9997V32.6663C37.3346 34.1391 36.1408 35.333 34.668 35.333H13.3346C11.8619 35.333 10.668 34.1391 10.668 32.6663V17.9997Z" stroke="white" stroke-width="2" stroke-linecap="round" stroke-linejoin="round"/>
<path d="M29.3346 15.3337V11.3337C29.3346 9.8609 28.1408 8.66699 26.668 8.66699H21.3346C19.8619 8.66699 18.668 9.8609 18.668 11.3337V15.3337" stroke="white" stroke-width="2" stroke-linecap="round" stroke-linejoin="round"/>
<path d="M37.3346 22L24.5242 24.5621C24.179 24.6311 23.8236 24.6311 23.4784 24.5621L10.668 22" stroke="white" stroke-width="2" stroke-linecap="round" stroke-linejoin="round"/>
</svg>
