<svg width="14" height="16" viewBox="0 0 14 16" xmlns="http://www.w3.org/2000/svg">
<path fill-rule="evenodd" clip-rule="evenodd" d="M11.9834 11.6L7.74339 15.7C7.53656 15.9 7.22631 16 7.01948 16C6.70924 16 6.50241 15.9 6.29558 15.7L2.05556 11.6C-0.73665 8.9 -0.633234 4.6 2.05556 2C3.39995 0.7 5.26143 0 7.01948 0C8.77754 0 10.639 0.7 11.9834 2C14.6722 4.6 14.6722 8.9 11.9834 11.6ZM10.3288 3.6C9.39803 2.7 8.26046 2.3 7.01948 2.3C5.7785 2.3 4.53752 2.8 3.7102 3.6C1.84873 5.4 1.84873 8.2 3.7102 10L7.01948 13.2L10.3288 10C12.1902 8.2 12.1902 5.4 10.3288 3.6ZM7.01948 8.6C5.98533 8.6 5.15801 7.8 5.15801 6.8C5.15801 5.8 5.98533 5 7.01948 5C8.05363 5 8.88095 5.8 8.88095 6.8C8.88095 7.8 8.05363 8.6 7.01948 8.6Z" />
</svg>
