<svg width="16" height="18" viewBox="0 0 16 18" fill="none" xmlns="http://www.w3.org/2000/svg">
<path d="M8.04968 4.3999C6.03736 4.3999 4.4275 5.9999 4.4275 7.8999C4.4275 9.7999 6.03736 11.3999 8.04968 11.3999C10.062 11.3999 11.6719 9.7999 11.6719 7.8999C11.6719 5.9999 10.062 4.3999 8.04968 4.3999ZM8.04968 9.6999C7.04352 9.6999 6.23859 8.8999 6.23859 7.8999C6.23859 6.8999 7.04352 6.0999 8.04968 6.0999C9.05584 6.0999 9.86077 6.8999 9.86077 7.8999C9.86077 8.8999 9.05584 9.6999 8.04968 9.6999Z" fill="#808080"/>
<path d="M8.04928 0C3.62218 0 0 3.5 0 7.9C0 10.9 1.71047 13.4 3.52156 15.1C4.42711 16 5.33265 16.7 6.03696 17.2C6.43943 17.4 6.74128 17.6 7.04312 17.8C7.14374 17.9 7.34497 17.9 7.44559 18C7.64682 18 7.84805 18 8.04928 18C8.25052 18 8.45175 18 8.55237 17.9C8.65298 17.9 8.85421 17.8 8.95483 17.7C9.25668 17.6 9.65914 17.4 9.96099 17.1C10.7659 16.6 11.6715 15.9 12.4764 15C14.1869 13.3 15.998 10.8 15.998 7.8C16.0986 3.5 12.4764 0 8.04928 0ZM11.3696 13.9C10.5647 14.7 9.75976 15.3 9.05545 15.7C8.7536 15.9 8.45175 16.1 8.25052 16.2C8.1499 16.2 8.1499 16.3 8.04928 16.3C8.04928 16.3 7.94867 16.3 7.84805 16.2C7.64682 16 7.34497 15.9 7.04312 15.7C6.33881 15.3 5.53388 14.7 4.72895 13.9C3.1191 12.3 1.71047 10.2 1.71047 7.9C1.71047 4.5 4.52772 1.8 7.94867 1.8C11.3696 1.8 14.1869 4.6 14.1869 7.9C14.2875 10.2 12.9795 12.3 11.3696 13.9Z" fill="#808080"/>
</svg>
