<svg width="180" height="45" viewBox="0 0 180 45" fill="none" xmlns="http://www.w3.org/2000/svg">
<path fill-rule="evenodd" clip-rule="evenodd" d="M165.932 9.95272L165.629 10.7452V10.7465C165.59 10.8135 165.567 10.8915 165.567 10.976C165.567 11.5956 166.743 11.5975 166.743 10.9773C166.743 10.9617 166.743 10.9474 166.741 10.9318V10.9286C166.74 10.9214 166.74 10.9149 166.738 10.9091L166.779 10.0788C166.799 9.8344 166.571 9.66796 166.356 9.66796C166.142 9.66731 165.999 9.78564 165.932 9.95272ZM168.371 7.45623C168.609 7.45623 168.806 7.64022 168.827 7.87296L169.787 14.1369L169.786 14.1376C169.792 14.1662 169.795 14.1961 169.795 14.226C169.795 14.4789 169.59 14.6824 169.338 14.6824C169.329 14.6824 169.321 14.6817 169.313 14.6817V14.6824H167.369H167.358C167.123 14.6824 166.929 14.5049 166.904 14.2767L166.824 13.5655L166.822 13.5648C166.81 13.3256 166.611 13.1338 166.367 13.1338H164.885V13.1344C164.88 13.1338 164.874 13.1338 164.87 13.1338C164.694 13.1338 164.54 13.2339 164.464 13.3795L163.932 14.4119C163.862 14.5706 163.702 14.6824 163.516 14.6824C163.509 14.6824 163.502 14.6824 163.497 14.6817H161.813C161.807 14.6824 161.8 14.6824 161.794 14.6824C161.541 14.6824 161.338 14.4783 161.338 14.2267C161.338 14.1428 161.36 14.0641 161.4 13.9965V13.9959L164.891 7.69743C164.967 7.5531 165.121 7.45493 165.295 7.45493H165.317H168.354C168.359 7.45623 168.366 7.45623 168.371 7.45623ZM115.662 7.47183H118.92H118.934C119.185 7.47183 119.389 7.67467 119.39 7.92562L119.509 11.4253H119.561L121.149 7.75009L121.15 7.74944C121.219 7.58691 121.381 7.47183 121.571 7.47183H121.587H124.81C125.063 7.47183 125.267 7.67597 125.267 7.92757C125.267 7.97178 125.261 8.01404 125.25 8.05435L123.974 14.3216C123.936 14.5348 123.75 14.698 123.525 14.698H123.512H121.967C121.717 14.6954 121.516 14.4926 121.516 14.2416C121.516 14.2013 121.521 14.1629 121.53 14.1265L122.573 9.02044H122.51L120.055 14.4087C119.988 14.5777 119.823 14.698 119.63 14.698H118.055C117.808 14.698 117.606 14.501 117.599 14.2559H117.597L117.387 9.02044H117.316L116.237 14.304C116.207 14.5238 116.017 14.6947 115.789 14.6973H114.355C114.102 14.6973 113.898 14.4932 113.898 14.2416C113.898 14.2019 113.903 14.1642 113.912 14.1272L115.192 7.8359C115.234 7.62786 115.419 7.47118 115.64 7.47118C115.647 7.47183 115.655 7.47183 115.662 7.47183ZM107.202 14.6986H112.578V14.698C112.808 14.6967 112.997 14.5264 113.027 14.3053L113.174 13.5538C113.182 13.52 113.185 13.4849 113.185 13.4491C113.185 13.1975 112.981 12.9934 112.729 12.9934C112.715 12.9934 112.701 12.994 112.687 12.9953H109.66L109.812 12.2418C109.852 12.0305 110.038 11.8706 110.26 11.8706H112.908C113.132 11.8706 113.32 11.7094 113.357 11.4974L113.503 10.7738C113.509 10.742 113.513 10.7088 113.513 10.6757C113.513 10.4241 113.309 10.2199 113.057 10.2199H113.053V10.2186H110.78C110.528 10.2186 110.324 10.0145 110.324 9.76353C110.324 9.73037 110.327 9.69787 110.335 9.66796L110.359 9.54899C110.398 9.33705 110.584 9.17647 110.808 9.17647H113.623C113.847 9.17517 114.031 9.01394 114.07 8.80264L114.221 8.02639C114.228 7.99519 114.233 7.96203 114.233 7.92822C114.233 7.67792 114.028 7.47378 113.776 7.47378H113.772C111.995 7.47378 110.216 7.47313 108.439 7.47313C108.205 7.47313 108.014 7.64607 107.986 7.87101L106.706 14.161C106.7 14.1889 106.698 14.2176 106.698 14.2468C106.698 14.4984 106.902 14.7025 107.154 14.7025C107.17 14.7012 107.185 14.7006 107.202 14.6986ZM160.116 14.5225C160.284 14.4796 160.415 14.3456 160.446 14.1785L160.631 13.297C160.637 13.2671 160.641 13.2365 160.641 13.206C160.641 12.9628 160.437 12.7652 160.184 12.7652C160.141 12.7652 160.097 12.7723 160.059 12.7821C159.686 12.8607 159.424 12.8731 159.27 12.8731C158.317 12.8731 157.583 12.4447 157.583 11.528C157.583 10.402 158.493 9.31559 159.995 9.31559C160.277 9.31559 160.604 9.35135 160.926 9.43002C160.968 9.44172 161.011 9.44887 161.058 9.44887C161.292 9.44887 161.484 9.27919 161.511 9.06009L161.696 8.16942C161.701 8.14211 161.704 8.11416 161.704 8.0849C161.704 7.84956 161.513 7.65777 161.27 7.64607C160.892 7.58496 160.363 7.52189 159.747 7.52189C156.32 7.52189 154.653 9.80319 154.653 11.907C154.653 13.8697 156.329 14.737 158.255 14.737C158.768 14.737 159.374 14.6902 160.103 14.5264C160.108 14.5251 160.111 14.5238 160.116 14.5225ZM175.646 9.71217L175.547 10.2095C175.415 10.8818 175.226 11.4916 174.859 12.0702C174.857 12.0708 174.856 12.0721 174.856 12.0728C174.813 12.1423 174.788 12.2249 174.788 12.3133C174.788 12.563 174.99 12.7645 175.239 12.7684V12.7691H175.867L175.867 12.7684C175.871 12.7691 175.875 12.7691 175.878 12.7691C176.1 12.7691 176.285 12.6111 176.326 12.4024H176.326L176.841 9.89486C176.848 9.85975 176.852 9.82464 176.852 9.78694C176.852 9.53599 176.648 9.3312 176.397 9.3312H176.105V9.33185C176.102 9.3312 176.1 9.3312 176.098 9.3312C175.871 9.3312 175.683 9.49633 175.646 9.71217ZM174.027 7.47378H179.548C179.799 7.47573 180 7.67857 180 7.92822C180 7.96723 179.996 8.00364 179.987 8.03809L179.026 12.7691H179.232C179.484 12.7691 179.689 12.9726 179.689 13.2248C179.689 13.2658 179.683 13.3048 179.673 13.3431L179.146 15.9131C179.112 16.1315 178.922 16.2999 178.694 16.2999H176.893C176.88 16.3006 176.866 16.3019 176.852 16.3019C176.6 16.3019 176.397 16.0977 176.397 15.8455C176.397 15.811 176.4 15.7759 176.408 15.7428L176.507 15.2695C176.516 15.2318 176.52 15.194 176.52 15.155C176.52 14.9028 176.315 14.6999 176.062 14.6999H173.81C173.797 14.6986 173.786 14.6986 173.775 14.6986C173.545 14.6986 173.355 14.8677 173.323 15.0894L173.149 15.9313C173.108 16.1413 172.922 16.2993 172.7 16.2993H172.695V16.2999H170.885C170.876 16.3006 170.869 16.3006 170.858 16.3006C170.606 16.3006 170.402 16.0971 170.402 15.8448C170.402 15.8136 170.404 15.7844 170.411 15.7551H170.41L170.944 13.1552C170.978 12.9375 171.166 12.7704 171.394 12.7691H171.582C172.751 11.8088 173.01 10.6425 173.187 9.78629L173.576 7.84761L173.578 7.84696C173.617 7.63501 173.803 7.47378 174.027 7.47378ZM69.5385 9.71217L69.4384 10.2095C69.3064 10.8818 69.1172 11.4916 68.7506 12.0702C68.7493 12.0708 68.7493 12.0721 68.7486 12.0728C68.7051 12.1423 68.6797 12.2249 68.6797 12.3133C68.6797 12.563 68.8812 12.7645 69.1309 12.7684V12.7691H69.7589V12.7684C69.7622 12.7691 69.7661 12.7691 69.77 12.7691C69.9917 12.7691 70.1763 12.6111 70.2179 12.4024L70.7315 9.89486C70.74 9.85975 70.7445 9.82464 70.7445 9.78694C70.7445 9.53599 70.5397 9.3312 70.2875 9.3312H69.9962V9.33185C69.9936 9.3312 69.9923 9.3312 69.9897 9.3312C69.7622 9.3312 69.5743 9.49633 69.5385 9.71217ZM67.9184 7.47378H73.438C73.6883 7.47573 73.8905 7.67857 73.8905 7.92822C73.8905 7.96723 73.8859 8.00364 73.8775 8.03809L72.9159 12.7691H73.122C73.3743 12.7691 73.5784 12.9726 73.5784 13.2248C73.5784 13.2658 73.5732 13.3048 73.5628 13.3431L73.0362 15.9131C73.003 16.1315 72.8139 16.2999 72.5844 16.2999H70.7848C70.7712 16.3006 70.7575 16.3019 70.7432 16.3019C70.491 16.3019 70.2862 16.0977 70.2862 15.8455C70.2862 15.811 70.2901 15.7759 70.2979 15.7428L70.396 15.2695C70.4051 15.2318 70.4103 15.194 70.4103 15.155C70.4103 14.9028 70.2062 14.6999 69.9533 14.6999H67.6993C67.6883 14.6986 67.6779 14.6986 67.6662 14.6986C67.436 14.6986 67.2455 14.8677 67.2143 15.0894L67.0394 15.9313C66.9985 16.1413 66.8132 16.2993 66.5915 16.2993H66.5856V16.2999H64.7757C64.7672 16.3006 64.7581 16.3006 64.749 16.3006C64.4961 16.3006 64.292 16.0971 64.292 15.8448C64.292 15.8136 64.2946 15.7844 64.3004 15.7551L64.8348 13.1552C64.8674 12.9375 65.0565 12.7704 65.2847 12.7691H65.4726C66.6429 11.8088 66.9016 10.6425 67.0771 9.78629L67.4679 7.84761L67.4685 7.84696C67.5082 7.63501 67.6941 7.47378 67.9184 7.47378ZM151.252 8.04199C151.261 8.00624 151.265 7.96723 151.265 7.92822C151.265 7.67727 151.062 7.47248 150.809 7.47248C150.801 7.47248 150.795 7.47313 150.789 7.47313H144.103V7.47378C144.095 7.47313 144.089 7.47313 144.081 7.47313C143.853 7.47313 143.663 7.63957 143.63 7.85736L143.386 9.05099C143.379 9.08415 143.375 9.11926 143.375 9.15501C143.375 9.40726 143.579 9.6114 143.831 9.6114C143.844 9.6114 143.855 9.61075 143.868 9.60945H145.159L145.161 9.6114C145.412 9.6127 145.614 9.81619 145.614 10.0665C145.614 10.0983 145.611 10.1296 145.605 10.1588L144.801 14.1122C144.787 14.1545 144.781 14.198 144.781 14.2429C144.781 14.4945 144.986 14.6993 145.238 14.6993C145.241 14.6993 145.244 14.6993 145.246 14.6986L145.247 14.6993H147.046C147.059 14.6993 147.07 14.6999 147.082 14.6999C147.307 14.6999 147.494 14.5381 147.533 14.3242L148.415 9.98067H148.416C148.455 9.76873 148.641 9.60945 148.864 9.60945C148.875 9.60945 148.886 9.60945 148.895 9.6101H150.528C150.538 9.61075 150.548 9.6114 150.559 9.6114C150.781 9.6114 150.966 9.45342 151.008 9.24473L151.252 8.04199ZM140.38 7.47378H142.197H142.214C142.466 7.47378 142.669 7.67727 142.669 7.92822C142.669 7.96268 142.667 7.99649 142.66 8.02899L141.379 14.3209C141.343 14.5355 141.155 14.6993 140.929 14.6993H140.899H139.083C138.832 14.698 138.629 14.4939 138.629 14.2429C138.629 14.2026 138.634 14.1642 138.644 14.1278L138.955 12.5844V12.5838C138.961 12.5539 138.965 12.524 138.965 12.4908C138.965 12.2412 138.761 12.0377 138.511 12.0351H137.611C137.602 12.0338 137.594 12.0338 137.587 12.0338C137.357 12.0338 137.167 12.2022 137.135 12.4213L136.752 14.3144V14.3151C136.717 14.5322 136.528 14.6986 136.301 14.6986H134.471H134.459C134.207 14.6986 134.003 14.4952 134.003 14.2429C134.003 14.2091 134.006 14.1759 134.013 14.1441L135.298 7.83395C135.34 7.62721 135.524 7.47118 135.745 7.47118C135.753 7.47118 135.761 7.47183 135.769 7.47183H137.567C137.574 7.47183 137.581 7.47118 137.587 7.47118C137.84 7.47118 138.043 7.67532 138.043 7.92692C138.043 7.96203 138.04 7.99584 138.031 8.02899H138.032L137.752 9.40791C137.743 9.44237 137.739 9.47813 137.739 9.51453C137.739 9.76613 137.943 9.97027 138.195 9.97027H138.21H139.12C139.347 9.96897 139.536 9.80189 139.568 9.58345L139.921 7.84501C139.96 7.63372 140.147 7.47248 140.37 7.47248H140.38V7.47378ZM128.762 10.1874C128.586 10.6529 128.4 11.5195 128.4 12.0864C128.4 13.0265 129.01 13.0883 129.228 13.0883C129.59 13.0883 130.169 12.8822 130.512 11.9837C130.677 11.5611 130.873 10.6009 130.873 10.0639C130.873 9.18622 130.305 9.0835 130.046 9.0835C129.746 9.0835 129.145 9.21872 128.762 10.1874ZM133.804 10.1569C133.804 11.6021 132.893 14.8228 128.814 14.8228C126.236 14.8228 125.47 13.3269 125.47 12.0162C125.47 10.5593 126.412 7.34961 130.397 7.34961C133.142 7.34896 133.804 8.98013 133.804 10.1569ZM102.318 10.9409L102.423 10.9416C103.479 10.9416 103.831 10.3747 103.831 9.88901C103.831 9.66211 103.717 9.17647 102.878 9.17647H102.498L102.497 9.17712C102.491 9.17647 102.484 9.17647 102.477 9.17647C102.25 9.17647 102.061 9.34225 102.027 9.55874L102.026 9.55939L101.861 10.3851L101.862 10.3857C101.854 10.4176 101.85 10.4514 101.85 10.4852C101.85 10.7368 102.055 10.9409 102.307 10.9409H102.318ZM100.126 7.47378H100.141H104.203C105.714 7.47378 106.667 8.39241 106.667 9.6205C106.667 10.9728 105.601 12.6449 103.065 12.6449H101.851V12.6455H101.845C101.62 12.6455 101.432 12.8081 101.394 13.022L101.133 14.3203C101.097 14.5355 100.908 14.6993 100.683 14.6993C100.676 14.6993 100.671 14.6986 100.665 14.6986V14.6993H98.882C98.8683 14.6999 98.8554 14.7006 98.841 14.7006C98.5888 14.7006 98.384 14.4971 98.384 14.2449C98.384 14.2091 98.3886 14.1746 98.397 14.1421L99.6745 7.85671C99.709 7.63957 99.8975 7.47378 100.126 7.47378ZM84.5662 7.47378C84.5578 7.47378 84.5506 7.47313 84.5428 7.47313C84.3218 7.47313 84.1371 7.62981 84.0942 7.83851L82.8141 14.1298C82.8044 14.1675 82.7998 14.2052 82.7998 14.2442C82.7998 14.4965 83.0039 14.6999 83.2568 14.6999H83.2731H84.691V14.6993C84.9205 14.6973 85.1091 14.527 85.1396 14.306L86.2182 9.02304H86.291L86.5016 14.2579C86.5088 14.5036 86.711 14.6999 86.958 14.6999H88.5216H88.5352C88.7277 14.6999 88.8934 14.5797 88.9598 14.4106L91.4159 9.02239H91.4784L90.4356 14.1285C90.4252 14.1649 90.4206 14.2039 90.4206 14.2436C90.4206 14.4932 90.6228 14.696 90.8724 14.6993V14.6999H92.4171V14.6993H92.4301C92.6551 14.6993 92.8423 14.5368 92.8794 14.3229L94.1543 8.05565C94.1653 8.01534 94.1718 7.97308 94.1718 7.92887C94.1718 7.67857 93.9683 7.47443 93.7161 7.47443H93.7083H90.4921H90.4752C90.286 7.47443 90.1241 7.58886 90.0552 7.75204H90.0546L88.4663 11.4279H88.4143L88.2947 7.92822C88.294 7.67792 88.0899 7.47508 87.8383 7.47508H87.8246H84.5662V7.47378ZM77.5689 10.1894C77.3927 10.6536 77.2068 11.5195 77.2068 12.0884C77.2068 13.0278 77.8172 13.0889 78.0337 13.0889C78.3965 13.0889 78.9764 12.8822 79.3184 11.985C79.4835 11.5611 79.6798 10.6022 79.6798 10.0639C79.6805 9.18752 79.1103 9.08415 78.8522 9.08415C78.5525 9.08415 77.9518 9.21873 77.5689 10.1894ZM82.6106 10.1575C82.6106 11.6027 81.6998 14.8228 77.6209 14.8228C75.0431 14.8228 74.2773 13.3269 74.2773 12.0162C74.2773 10.5599 75.2193 7.35026 79.2046 7.35026C81.9481 7.34961 82.6106 8.98078 82.6106 10.1575Z" fill="#636363"/>
<path fill-rule="evenodd" clip-rule="evenodd" d="M32.0886 8.12399C32.9085 8.46725 33.4689 7.73651 33.4253 7.09289C33.3817 6.25422 32.8434 5.6522 32.5418 4.8571C32.5853 6.1242 30.6668 7.26322 32.0886 8.12399ZM53.574 11.597H46.4012C46.0215 11.597 45.686 11.7888 45.4897 12.082L38.3676 21.3983H38.2349L39.9591 12.9401C39.9779 12.8595 39.9877 12.7763 39.9877 12.6918C39.9877 12.0878 39.4962 11.5976 38.8903 11.5976H38.8805L32.2232 11.597C31.6914 11.597 31.2487 11.974 31.1479 12.474H31.1466L26.5301 35.2031L26.5307 35.2044C26.5125 35.283 26.5027 35.3676 26.5027 35.4534C26.5027 36.0567 26.9942 36.5462 27.5995 36.5462C27.6314 36.5462 27.6619 36.5449 27.6931 36.5423H34.2685C34.8062 36.5423 35.2535 36.1555 35.3471 35.6465L37.3079 25.957H37.4405L40.76 35.7843C40.9018 36.2251 41.3152 36.5423 41.8035 36.5423H49.9632V36.5397H49.9658C50.5711 36.5397 51.0619 36.0495 51.0619 35.4462C51.0619 35.2843 51.0275 35.1329 50.9657 34.9976V34.9963C49.3339 31.3108 47.7014 27.6252 46.0696 23.9383C45.8193 23.2784 46.1333 22.9222 46.266 22.7466L54.3568 13.4674C54.557 13.2691 54.6812 12.9941 54.6812 12.6898C54.6812 12.0859 54.1904 11.597 53.5851 11.597H53.574ZM166.886 30.1126H166.775L166.656 20.3581C166.659 20.3288 166.66 20.2996 166.66 20.269C166.66 19.6676 166.173 19.18 165.57 19.1755H159.235C158.629 19.1755 158.139 19.665 158.139 20.269C158.139 20.3503 158.148 20.4302 158.163 20.505C159.008 25.8796 159.852 31.2542 160.695 36.6295C160.718 36.7718 160.709 36.8668 160.699 36.9493C160.645 37.4382 160.235 38.0201 159.879 38.3295C159.146 38.9634 158.172 39.0395 157.668 39.0395C157.177 39.0395 156.701 39.0018 156.218 38.914C156.215 38.9127 156.212 38.9127 156.209 38.9127C156.143 38.901 156.078 38.8951 156.009 38.8951C155.47 38.8951 155.021 39.2826 154.93 39.7949L154.382 42.4865C154.368 42.5586 154.36 42.6334 154.36 42.7094C154.36 43.2653 154.777 43.7256 155.314 43.7939C161.617 45.0089 166.702 43.264 169.877 37.2276C172.784 31.7451 175.692 26.2612 178.599 20.7794C178.669 20.6545 178.709 20.5245 178.72 20.3958C178.724 20.3529 178.727 20.31 178.727 20.2664C178.727 19.6624 178.235 19.1722 177.631 19.1722C177.599 19.1722 177.567 19.1735 177.536 19.1761H171.973C171.49 19.1761 171.079 19.4876 170.933 19.9199L166.886 30.1126ZM146.917 29.848C146.452 30.8641 145.899 31.3719 145.345 31.6144C145.079 31.7268 144.813 31.7704 144.591 31.7704C143.993 31.7704 143.062 31.4596 143.062 29.848C143.062 28.7876 143.329 27.3964 143.793 26.3353C144.214 25.2951 144.79 24.7672 145.345 24.5462C145.588 24.4578 145.832 24.4136 146.075 24.4136C146.519 24.4136 147.648 24.5462 147.648 26.3353C147.648 27.3287 147.339 28.8539 146.917 29.848ZM143.384 19.1755C143.989 19.1755 144.481 19.665 144.481 20.269C144.481 20.3548 144.47 20.4374 144.452 20.5174L144.128 22.1154H144.26C144.592 21.6297 144.947 21.187 145.346 20.8119C146.83 19.3978 148.488 19.1813 150.483 19.1813C151.988 19.1813 156.69 19.1118 156.69 25.3641C156.69 32.39 152.436 36.9409 147.006 36.9409C146.541 36.9409 145.943 36.8967 145.345 36.7647C144.193 36.4994 142.951 35.8591 142.22 34.3118L140.449 42.8434C140.388 43.3888 139.923 43.814 139.358 43.814C139.349 43.814 139.339 43.814 139.328 43.8127H133.217C132.611 43.8127 132.12 43.3225 132.12 42.7192C132.12 42.6392 132.13 42.5619 132.146 42.4858L136.768 20.0389C136.875 19.5467 137.315 19.1774 137.841 19.1774H137.857H143.361C143.37 19.1755 143.376 19.1755 143.384 19.1755ZM122.637 30.1126H122.527L122.409 20.3581C122.411 20.3288 122.412 20.2996 122.412 20.269C122.412 19.6676 121.925 19.18 121.323 19.1755H114.987C114.38 19.1755 113.89 19.665 113.89 20.269C113.89 20.3503 113.899 20.4302 113.916 20.505C114.759 25.8796 115.603 31.2542 116.447 36.6295C116.47 36.7718 116.46 36.8668 116.451 36.9493C116.397 37.4382 115.988 38.0201 115.631 38.3295C114.899 38.9634 113.924 39.0395 113.42 39.0395C112.929 39.0395 112.453 39.0018 111.971 38.914C111.968 38.9127 111.964 38.9127 111.96 38.9127C111.896 38.901 111.829 38.8951 111.762 38.8951C111.221 38.8951 110.773 39.2826 110.681 39.7949L110.134 42.4865H110.135C110.12 42.5586 110.112 42.6334 110.112 42.7094C110.112 43.2269 110.472 43.6599 110.956 43.7737C112.193 44.0643 113.547 44.2099 114.817 44.2099C119.736 44.2099 123.038 42.1562 125.63 37.2282C128.537 31.7457 131.444 26.2619 134.352 20.78C134.422 20.6552 134.46 20.5252 134.473 20.3964C134.478 20.3535 134.48 20.3106 134.48 20.2671C134.48 19.6631 133.989 19.1729 133.384 19.1729C133.352 19.1729 133.321 19.1742 133.29 19.1768H127.725C127.243 19.1768 126.832 19.4882 126.685 19.9205L122.637 30.1126ZM110.536 19.1755C110.556 19.1742 110.578 19.1742 110.599 19.1742C111.205 19.1742 111.695 19.6631 111.695 20.2677C111.695 20.3626 111.684 20.4543 111.661 20.5414L111.092 23.2563C110.997 23.7628 110.551 24.147 110.015 24.147L105.688 24.1399C105.172 24.1327 104.713 24.5176 104.612 25.0182L102.445 35.6543C102.349 36.1594 101.903 36.5417 101.368 36.5417H95.2439V36.5404H95.2322C94.627 36.5404 94.1368 36.0502 94.1368 35.4456C94.1368 35.3741 94.1433 35.3019 94.1563 35.233L97.2736 20.0629C97.3699 19.5571 97.8152 19.1742 98.3509 19.1742C98.3619 19.1742 98.3717 19.1748 98.3834 19.1748L110.536 19.1755ZM86.6948 20.0863L85.8255 24.2809C85.5232 25.6696 82.6159 25.4473 82.9403 23.8532L83.6249 20.4868C83.6385 20.4172 83.6463 20.3438 83.6463 20.269C83.6463 19.6663 83.1568 19.1774 82.5521 19.1755H76.5144C76.4878 19.1735 76.4605 19.1729 76.4332 19.1729C75.9072 19.1729 75.4677 19.5428 75.3611 20.0356L75.3598 20.0415L75.3578 20.0506L72.2366 35.2492C72.2242 35.313 72.219 35.3786 72.219 35.4482C72.219 36.0515 72.7099 36.5417 73.3158 36.5417H73.321V36.543H79.4302H79.4504C79.9913 36.543 80.4399 36.1523 80.5303 35.6387C80.8456 34.094 81.1797 32.548 81.495 31.002C81.7856 29.6672 84.6787 29.8272 84.3803 31.4395L83.6054 35.2148C83.6034 35.2252 83.6015 35.2343 83.5989 35.244L83.5976 35.2525C83.5859 35.3162 83.58 35.3819 83.58 35.4501C83.58 36.0534 84.0709 36.5436 84.6774 36.5436H90.7314C90.7529 36.5449 90.7743 36.5462 90.7958 36.5462C91.3302 36.5462 91.7762 36.164 91.873 35.6588L94.9871 20.5024C95.0027 20.4276 95.0125 20.3496 95.0125 20.2703C95.0125 19.667 94.5223 19.1775 93.917 19.1768H87.7759C87.2324 19.1755 86.7812 19.5701 86.6948 20.0863ZM63.6341 25.9336H62.5035L61.6694 25.9433C60.9231 25.9433 60.3913 25.223 60.6312 24.4903C61.0681 23.1549 61.9327 22.7362 62.5029 22.5763C62.7246 22.5321 62.9242 22.51 63.0347 22.51C63.744 22.51 64.7413 22.8409 64.7413 24.5423C64.7413 24.6632 64.7374 24.736 64.7309 24.907C64.7101 25.446 64.2511 25.9238 63.6341 25.9336ZM71.3739 28.5243C71.301 29.0581 70.8421 29.4696 70.2869 29.4696H70.2491H60.8366C60.8028 29.4696 60.7696 29.4722 60.7371 29.4755C60.6702 29.4807 60.6052 29.4917 60.5421 29.5086C60.0851 29.6289 59.7912 30.004 59.7411 30.4233C59.7353 30.4702 59.732 30.5176 59.732 30.5644C59.732 30.8771 59.8634 31.1593 60.074 31.3582C60.4985 31.8042 61.254 32.1351 62.5035 32.2099C62.6583 32.2099 62.8358 32.232 63.0132 32.232C64.4429 32.232 66.2366 31.9355 67.832 31.5409C67.9347 31.5091 68.0433 31.4928 68.1557 31.4928C68.7617 31.4928 69.2525 31.983 69.2525 32.5863C69.2525 32.6734 69.2427 32.756 69.2245 32.836L68.8091 34.8449C68.7317 35.2739 68.4041 35.6153 67.9828 35.7154H67.9796C66.0227 36.1796 64.1926 36.4169 62.5048 36.4968C61.9074 36.5189 61.3528 36.5391 60.7768 36.5391C58.8271 36.5391 55.8579 36.3863 53.7307 34.618C52.5124 33.6246 51.4488 32.0324 51.4488 29.5359C51.4488 25.6716 54.2183 18.8433 62.5055 18.4005C62.7935 18.3784 63.0821 18.3563 63.3702 18.3563C69.1972 18.3563 70.9695 21.384 71.4564 22.7753C71.723 23.5476 71.8342 24.3661 71.8342 25.1612C71.8342 26.2658 71.6573 27.3274 71.3908 28.4535L71.3739 28.5243ZM11.6057 7.3952C11.9041 7.3952 12.1473 7.63639 12.1473 7.93415C12.1473 8.23191 11.9048 8.47376 11.6057 8.47376C11.3067 8.47376 11.0648 8.23191 11.0648 7.93415C11.0648 7.63639 11.3067 7.3952 11.6057 7.3952ZM9.56889 6.95376C9.84584 6.95376 10.0708 7.17805 10.0708 7.45501C10.0708 7.73196 9.84584 7.95625 9.56889 7.95625C9.29128 7.95625 9.06569 7.73196 9.06569 7.45501C9.06569 7.17805 9.29128 6.95376 9.56889 6.95376ZM10.9998 14.5915C11.5193 14.4575 11.4972 13.9888 11.6265 13.1417C11.8664 13.0578 12.1037 12.9629 12.3462 12.8524C11.9666 14.3125 11.739 15.5309 10.665 15.6109C9.48372 15.5107 9.97002 14.2716 9.89395 13.5122C10.1761 13.4882 10.4407 13.4479 10.6969 13.3965C10.6787 13.8737 10.2938 14.5349 10.9998 14.5915ZM12.2045 6.55198C11.6883 6.42651 11.0538 6.98562 10.7885 7.80022C10.5233 8.61613 10.7261 9.37873 11.2423 9.50421C11.7585 9.62968 12.393 9.06992 12.6583 8.25466C12.9242 7.4394 12.7207 6.67745 12.2045 6.55198ZM10.1254 6.16971C9.6456 6.05398 9.05659 6.57343 8.81019 7.33083C8.56314 8.08888 8.75233 8.79622 9.23147 8.91389C9.71127 9.03026 10.3009 8.51016 10.5473 7.75277C10.7937 6.99537 10.6052 6.28608 10.1254 6.16971ZM3.64493 11.504C3.41414 11.5001 3.16579 11.4585 2.91159 11.3772C1.99881 11.0847 1.37079 10.3806 1.50926 9.80522C1.64839 9.23115 2.50071 9.00231 3.41413 9.29487C3.94854 9.46585 4.38543 9.77791 4.62727 10.1231C5.94898 9.39369 6.87346 9.13754 8.09505 8.95485C7.71407 7.94455 8.25563 5.96036 9.56499 5.48057C7.8272 3.3423 7.79144 1.77875 7.8532 0C10.5012 1.45954 13.6777 2.319 13.2844 6.09689C13.5932 6.23602 13.902 6.37645 14.2023 6.65665C15.5748 1.31911 18.4366 2.83845 20.9637 0.159281C20.9975 3.73758 19.4469 6.63585 16.314 8.85473C16.5194 12.5325 15.9596 16.8103 16.8204 20.808C17.6038 20.9484 18.0778 20.6077 18.6135 20.2489C19.3175 19.3484 18.1779 17.4696 18.7194 16.9904C19.3884 16.3695 19.9488 17.2895 20.5547 17.4293C21.4103 17.0093 21.1821 16.4892 21.8836 15.9905L26.5574 7.23526C26.3019 6.85559 26.3929 6.29518 27.028 6.25552L27.9961 0.379024C28.3329 0.40763 28.5806 0.332215 28.7717 0.237296C29.1923 0.0286056 29.3874 -0.138477 29.5681 0.219093C29.6455 0.372523 29.6851 0.793155 29.8873 0.810709C30.5498 0.86792 31.0562 0.462891 31.0237 1.20924C31.0049 1.65002 31.0432 1.83921 31.5009 1.7781C32.9143 1.58696 31.6862 2.58946 32.6289 2.95288L28.5279 7.01617C28.8348 7.53497 28.4161 7.93545 27.9408 7.93545L23.4374 16.1303C24.763 16.8298 24.8755 19.0286 24.016 19.5285C22.6781 20.4276 21.3849 21.2481 19.798 22.367C19.5672 22.2467 19.5392 22.027 19.3091 21.9073C18.4756 22.6472 17.4874 23.3266 16.5474 23.8454C16.2756 27.5842 16.5766 30.2829 17.2007 32.1806C18.9327 38.5974 31.7603 38.8678 30.633 40.2468C30.6337 40.5627 30.1136 40.7883 29.2664 40.7545C26.8038 40.6583 20.6028 39.9289 17.9263 39.6948C17.4094 39.6506 17.0245 39.6246 16.8224 39.6246C16.6442 39.6246 16.4966 39.7832 16.4875 39.9445L16.3686 40.5946C16.3614 40.7259 16.3465 40.7838 16.2847 40.8215C16.2619 40.8351 16.2372 40.8436 16.2132 40.8546C12.9248 42.3382 7.28434 44.5474 6.87086 43.7126C6.68817 43.4103 7.14261 43.108 7.3279 42.9409C8.24068 42.1178 9.35825 41.3923 10.2847 40.774L10.942 40.3553C11.0239 40.2942 11.0687 40.2143 11.0941 40.1141C11.0993 40.0147 11.085 39.9152 11.0096 39.8547C10.1312 38.9563 9.80553 38.0285 9.95506 37.1301C10.1527 36.0892 11.0557 35.2466 12.4568 34.2578C12.6199 34.1583 12.7188 33.9847 12.6277 33.8437C12.5946 33.7709 12.4769 33.7494 12.3735 33.7839C11.9906 33.9152 11.9744 33.9925 12.2578 33.6389C13.2291 32.4283 14.1172 30.3635 14.3499 27.6317C14.3558 27.5316 14.3012 27.4315 14.227 27.3502C14.1516 27.2904 14.0535 27.2715 13.9527 27.3099C11.5167 28.0315 9.56499 27.7747 7.29214 26.3353L7.26679 26.3256C7.8402 25.2626 8.51243 24.3694 8.94216 23.7816C9.30299 23.2876 9.18596 22.7466 8.79524 22.3195C8.26018 21.7344 7.45662 21.0992 6.85071 20.8262C6.61536 20.7241 6.38977 20.7215 6.15897 20.7384C5.98604 20.7521 5.80985 20.7761 5.62327 20.78C5.66357 21.0375 5.69738 21.2943 5.72599 21.5452C5.73379 21.6154 5.74289 21.6863 5.75004 21.7565C5.88527 21.7903 6.00424 21.841 6.10631 21.8924C6.48013 22.0627 6.73693 22.3 6.82535 22.59L6.17197 25.9953L5.48804 29.623C5.29495 30.1665 4.21834 30.3382 3.54481 30.3382H3.4785C2.82122 30.3382 1.77256 30.134 1.46115 29.623L0.000967999 22.6608C-0.0237368 22.2012 0.426801 21.9125 1.08148 21.7246C1.13154 20.8047 1.66269 19.1462 2.12363 17.8895C2.10348 17.5073 2.2179 17.1061 2.4708 16.6914C4.10327 14.4699 4.99004 16.9761 6.50679 17.0502C7.16472 16.2714 7.63346 16.0315 7.93642 16.2714C8.93306 16.4911 7.27979 18.7705 8.19647 19.3491C8.82384 19.7892 10.1436 20.2495 11.0291 20.3282C11.6655 19.2295 12.488 17.6503 12.4086 15.9106C8.82254 18.4298 9.1424 13.8523 9.23147 13.6722C7.29864 13.6722 5.09796 13.0467 3.64493 11.504ZM3.45964 21.7682H3.40893C1.72706 21.7682 0.355287 22.1284 0.362438 22.575C0.36959 23.0223 1.75176 23.3818 3.43429 23.3818H3.48565C4.19884 23.3818 4.82686 23.3298 5.31836 23.2277C5.31186 22.8149 5.27025 22.3696 5.22994 21.9223C4.73519 21.8196 4.13903 21.7682 3.45964 21.7682ZM6.13427 22.1973C6.0491 22.1466 5.92948 22.1128 5.7923 22.0608C5.83326 22.4385 5.85601 22.7811 5.87747 23.0737C5.97889 23.0392 6.06275 23.0054 6.14727 22.9534C6.36636 22.85 6.48338 22.7128 6.48143 22.5757C6.47883 22.4378 6.35726 22.3176 6.13427 22.1973ZM5.06221 20.7156C5.0349 20.7078 5.00825 20.6994 4.98029 20.689C3.95244 20.3282 3.11573 19.7288 2.58067 19.0494C2.51111 18.9746 2.4487 18.8992 2.39279 18.8218C2.08137 19.6072 1.78232 20.8931 1.73746 21.6063C2.24196 21.5218 2.69704 21.5036 3.28671 21.486H3.40503C4.02851 21.4691 4.65263 21.5199 5.19353 21.6219L5.18768 21.5842C5.15127 21.2897 5.10967 20.9985 5.06221 20.7156ZM10.4154 40.1089C9.57994 39.1298 9.24447 38.0909 9.42001 37.091C9.56499 36.3388 10.3276 35.3663 11.0213 34.7363C11.8385 33.9938 11.1884 34.4301 10.8087 34.5308C9.45642 34.8884 7.50994 34.6414 6.41707 33.8053C3.30946 36.857 5.80075 39.9035 6.75579 40.4503C6.52564 40.6693 6.09396 40.9502 5.84626 41.1309C5.32551 41.4508 4.90293 41.7174 4.55836 41.9397C3.56887 42.5794 3.23535 42.8557 3.13263 43.0274C3.02341 43.2094 3.13198 43.4733 3.31011 43.5462C3.54156 43.6404 4.10587 43.6443 5.57711 43.2107C6.15052 43.0423 6.64332 42.7452 7.15042 42.4195C8.15356 41.7765 9.10535 40.9535 10.089 40.3092L10.4154 40.1089ZM8.01378 34.0881C9.32444 34.4996 10.8678 34.4723 12.0595 33.0973C12.8741 32.1345 13.3975 30.4318 13.6465 28.1297C13.6569 28.0322 13.6497 28.0218 13.5158 28.0536C10.5473 28.7467 8.41166 27.9431 6.89231 26.9868C5.74419 29.4274 5.18573 33.1987 8.01378 34.0881Z" fill="#F29400"/>
</svg>
