<svg width="69" height="15" viewBox="0 0 69 15" fill="none" xmlns="http://www.w3.org/2000/svg">
<path fill-rule="evenodd" clip-rule="evenodd" d="M69 3.73822C69 3.81152 69 3.88482 68.9222 3.88482C67.5998 6.23037 66.2773 8.57592 64.9549 10.9215C63.4769 13.4869 61.221 14.2199 58.3427 13.7068C58.1094 13.7068 57.876 13.4869 57.876 13.267V13.1937L58.1094 12.0209C58.1871 11.801 58.3427 11.6545 58.5761 11.6545H58.6539C58.8873 11.7277 59.1206 11.7277 59.2762 11.7277C59.5096 11.7277 59.9763 11.7277 60.2875 11.4346C60.4431 11.288 60.5986 11.0681 60.6764 10.8482C60.6764 10.8482 60.6764 10.7749 60.6764 10.7016C60.2875 8.42932 59.8985 6.08377 59.5096 3.81152V3.73822C59.5096 3.44503 59.743 3.29843 59.9763 3.29843H62.8546C63.1657 3.29843 63.3213 3.51832 63.3213 3.73822C63.3213 3.73822 63.3213 3.73822 63.3213 3.81152L63.3991 7.98953H63.4769L65.3439 3.66492C65.4216 3.44503 65.5772 3.37173 65.8106 3.37173H68.4555C68.4555 3.37173 68.4555 3.37173 68.5333 3.37173C68.8444 3.22513 69 3.44503 69 3.73822ZM54.6088 10.8482C54.3754 10.8482 54.1421 10.8482 53.8309 10.7749C53.2864 10.6283 52.7418 10.4084 52.4307 9.74869L51.6528 13.4136C51.6528 13.6335 51.4194 13.8534 51.186 13.8534H48.3856C48.0744 13.8534 47.9188 13.6335 47.9188 13.4136V13.3403L50.0192 3.73822C50.097 3.51832 50.2525 3.37173 50.4859 3.37173H52.9752C53.2864 3.37173 53.4419 3.59162 53.4419 3.81152V3.88482L53.2864 4.5445H53.3642C53.5197 4.32461 53.6753 4.17801 53.8309 3.95812C54.531 3.37173 55.2311 3.22513 56.1646 3.22513C56.8647 3.22513 58.9651 3.22513 58.9651 5.86387C59.0428 8.86911 57.0981 10.8482 54.6088 10.8482ZM54.2198 5.49738C54.1421 5.49738 53.9865 5.49738 53.9087 5.57068C53.6753 5.64398 53.3642 5.86387 53.2086 6.30367C52.9752 6.74346 52.8974 7.32984 52.8974 7.76963C52.8974 8.42932 53.2864 8.57592 53.5975 8.57592C53.6753 8.57592 53.8309 8.57592 53.9087 8.50262C54.1421 8.42932 54.3754 8.20942 54.6088 7.76963C54.7644 7.32984 54.92 6.67016 54.92 6.30367C54.92 5.49738 54.4532 5.49738 54.2198 5.49738ZM48.9301 3.95812C47.6077 6.30367 46.2852 8.64921 44.9628 10.9948C43.7959 13.1204 42.3179 14 40.062 14C39.5175 14 38.8952 13.9267 38.2728 13.7801C38.0395 13.7068 37.8839 13.5602 37.8839 13.3403V13.267L38.1173 12.0942C38.195 11.8743 38.3506 11.7277 38.584 11.7277H38.6618C38.8952 11.801 39.1285 11.801 39.2841 11.801C39.5175 11.801 39.9842 11.801 40.2954 11.5079C40.451 11.3613 40.6065 11.1414 40.6843 10.9215C40.6843 10.9215 40.6843 10.8482 40.6843 10.7749C40.2954 8.50262 39.9064 6.15707 39.5175 3.88482V3.81152C39.5175 3.51832 39.7508 3.37173 39.9842 3.37173H42.8625C43.1736 3.37173 43.3292 3.59162 43.3292 3.81152C43.3292 3.81152 43.3292 3.81152 43.3292 3.88482L43.407 8.06283H43.5626L45.4295 3.73822C45.5073 3.51832 45.6629 3.44503 45.8963 3.44503H48.3856C48.3856 3.44503 48.3856 3.44503 48.4634 3.44503C48.7745 3.44503 48.9301 3.66492 48.9301 3.88482V3.95812C48.9301 3.88482 48.9301 3.81152 48.9301 3.95812ZM38.3506 4.98429C38.2728 5.20419 38.1173 5.35079 37.8839 5.35079H35.9391C35.7058 5.35079 35.4724 5.49738 35.4724 5.71728L34.4611 10.2618C34.3833 10.4817 34.2277 10.6283 33.9944 10.6283H31.1939C30.8828 10.6283 30.7272 10.4084 30.7272 10.1885V10.1152L32.1274 3.66492C32.2052 3.44503 32.3608 3.29843 32.5941 3.29843H38.1173C38.4284 3.29843 38.584 3.51832 38.584 3.73822C38.584 3.81152 38.584 3.81152 38.584 3.88482L38.3506 4.98429ZM29.6381 10.2618C29.5603 10.4817 29.4047 10.6283 29.1714 10.6283H26.4487C26.1375 10.6283 25.982 10.4084 25.982 10.1885V10.1152L26.3709 8.50262C26.5265 7.84293 25.2041 7.76963 25.0485 8.28272C24.8929 8.94241 24.7373 9.60209 24.5817 10.2618C24.5039 10.4817 24.3484 10.6283 24.115 10.6283H21.3145C21.0034 10.6283 20.8478 10.4084 20.8478 10.1885V10.1152L22.248 3.59162C22.3258 3.37173 22.4814 3.22513 22.7148 3.22513H25.4374C25.7486 3.22513 25.9042 3.44503 25.9042 3.66492V3.73822L25.593 5.20419C25.4374 5.86387 26.7599 6.01047 26.9154 5.35079L27.3044 3.59162C27.3822 3.37173 27.5378 3.22513 27.7711 3.22513H30.5716C30.8828 3.22513 31.0383 3.44503 31.0383 3.66492V3.73822L29.6381 10.2618ZM20.3811 7.25654C20.3811 7.47644 20.1477 7.69634 19.9143 7.69634H15.5581C15.5581 7.69634 15.5581 7.69634 15.4803 7.69634H15.4025C15.1691 7.76963 15.0913 7.91623 15.0135 8.06283V8.13613C15.0135 8.28272 15.0913 8.35602 15.1691 8.50262C15.3247 8.72251 15.7136 8.86911 16.2582 8.86911C16.336 8.86911 16.4138 8.86911 16.4915 8.86911C17.1139 8.86911 17.9696 8.72251 18.6697 8.57592C18.7475 8.57592 18.7475 8.57592 18.8253 8.57592C19.1364 8.57592 19.292 8.79581 19.292 9.01571C19.292 9.08901 19.292 9.08901 19.292 9.08901L19.1364 9.96859C19.1364 10.1885 18.9808 10.2618 18.7475 10.3351C17.8918 10.4817 17.1139 10.6283 16.336 10.6283C16.1026 10.6283 15.7914 10.6283 15.5581 10.6283C14.7024 10.6283 13.3021 10.555 12.3687 9.82199C11.8241 9.3822 11.3574 8.72251 11.3574 7.62304C11.3574 5.93717 12.602 3.07853 16.336 2.85864C16.4915 2.85864 16.5693 2.85864 16.7249 2.85864C19.3698 2.85864 20.1477 4.17801 20.3811 4.7644C20.5366 5.13089 20.5366 5.42408 20.5366 5.79058C20.5366 6.30367 20.4589 6.74346 20.3811 7.25654ZM16.5693 4.6911C16.4915 4.6911 16.4138 4.6911 16.336 4.6911C16.1026 4.7644 15.7136 4.911 15.4803 5.49738C15.4025 5.79058 15.6359 6.08377 15.947 6.08377H16.336H16.8805C17.1917 6.08377 17.3472 5.86387 17.3472 5.64398C17.3472 5.57068 17.3472 5.57068 17.3472 5.49738C17.3472 4.8377 16.8805 4.6911 16.5693 4.6911ZM8.94589 4.7644C8.8681 4.8377 8.71251 4.98429 8.86809 5.27749C9.646 6.81675 10.3461 8.42932 11.124 9.96859C11.124 10.0419 11.2018 10.1152 11.2018 10.1885C11.2018 10.4817 10.9684 10.6283 10.7351 10.6283H6.92334C6.68997 10.6283 6.53439 10.4817 6.4566 10.3351L4.97858 6.15707H4.90079L4.0451 10.2618C3.96731 10.4817 3.81173 10.6283 3.57835 10.6283H0.544532C0.544532 10.6283 0.544532 10.6283 0.466742 10.6283C0.155581 10.6283 0 10.4084 0 10.1885C0 10.1152 0 10.1152 0 10.1152L2.10034 0.366492C2.17813 0.146597 2.33371 0 2.56708 0H5.6009C5.91206 0 6.06764 0.219895 6.06764 0.439791V0.513089L5.28974 4.10471H5.36753L8.63472 0.146597C8.71251 0.0732984 8.8681 0 9.02368 0H12.2909C12.602 0 12.7576 0.219895 12.7576 0.439791C12.7576 0.586387 12.6798 0.659686 12.602 0.806283L8.94589 4.7644Z" fill="#F29400"/>
</svg>
