<svg width="54" height="34" viewBox="0 0 54 34" fill="none" xmlns="http://www.w3.org/2000/svg">
<rect width="54" height="34" rx="4" fill="white"/>
<path d="M20.9842 29.5255V27.8259C21.0239 27.2707 20.6047 26.792 20.0495 26.7523C20.007 26.7495 19.9645 26.7495 19.922 26.7523C19.5396 26.7268 19.177 26.911 18.9702 27.2339C18.7833 26.9223 18.4405 26.7353 18.0751 26.7523C17.7578 26.7353 17.4576 26.8883 17.2819 27.1546V26.8203H16.6927V29.5255H17.2876V28.027C17.2395 27.6814 17.4774 27.3614 17.823 27.3132C17.8655 27.3075 17.908 27.3047 17.9505 27.3075C18.3414 27.3075 18.5396 27.5625 18.5396 28.0214V29.5255H19.1345V28.027C19.0892 27.6786 19.3356 27.3585 19.684 27.3132C19.7209 27.3075 19.7605 27.3075 19.7974 27.3075C20.1996 27.3075 20.3922 27.5625 20.3922 28.0214V29.5255H20.9842ZM24.2985 28.1743V26.8231H23.7036V27.1517C23.4996 26.8911 23.1852 26.7438 22.8538 26.7552C22.072 26.7552 21.4375 27.3897 21.4375 28.1715C21.4375 28.9533 22.072 29.5878 22.8538 29.5878C23.1852 29.5992 23.4996 29.4519 23.7036 29.1913V29.5198H24.2928L24.2985 28.1743ZM22.1088 28.1743C22.1343 27.7239 22.5224 27.3783 22.9756 27.4067C23.426 27.4322 23.7716 27.8202 23.7433 28.2735C23.7178 28.704 23.3608 29.0411 22.9303 29.044C22.4827 29.0553 22.1116 28.7012 22.1003 28.2536C22.1003 28.2281 22.1003 28.2027 22.1031 28.1772L22.1088 28.1743ZM36.8868 26.758C37.0794 26.758 37.2721 26.7948 37.4534 26.8656C37.6261 26.9336 37.7819 27.0356 37.9151 27.1659C38.0454 27.2934 38.1502 27.4463 38.221 27.6163C38.3683 27.9789 38.3683 28.3868 38.221 28.7494C38.1502 28.9193 38.0454 29.0723 37.9151 29.1998C37.7819 29.3301 37.6261 29.432 37.4534 29.5C37.0794 29.6445 36.6659 29.6445 36.292 29.5C36.122 29.432 35.9634 29.3301 35.8331 29.1998C35.7028 29.0723 35.6008 28.9193 35.53 28.7494C35.3827 28.3868 35.3827 27.9789 35.53 27.6163C35.6008 27.4463 35.7028 27.2934 35.8331 27.1659C35.9634 27.0356 36.122 26.9336 36.292 26.8656C36.4789 26.7892 36.68 26.7495 36.8812 26.7495L36.8868 26.758ZM36.8868 27.3245C36.7707 27.3217 36.6574 27.3444 36.5497 27.3868C36.4478 27.4265 36.3571 27.4888 36.2806 27.5653C36.2013 27.6475 36.1418 27.7438 36.1022 27.8486C36.0144 28.0752 36.0144 28.3245 36.1022 28.5511C36.1418 28.6559 36.2013 28.7522 36.2806 28.8343C36.3571 28.9108 36.4478 28.9731 36.5497 29.0128C36.765 29.0978 37.0058 29.0978 37.2211 29.0128C37.3259 28.9731 37.4222 28.9137 37.5043 28.8343C37.5837 28.7522 37.6431 28.6559 37.6828 28.5511C37.7706 28.3245 37.7706 28.0752 37.6828 27.8486C37.6431 27.7438 37.5837 27.6475 37.5043 27.5653C37.4222 27.486 37.3259 27.4265 37.2211 27.3868C37.1134 27.3387 36.9973 27.3104 36.8812 27.3075L36.8868 27.3245ZM27.4994 28.1743C27.4994 27.3245 26.9725 26.758 26.2162 26.758C25.4344 26.7693 24.8083 27.4123 24.8197 28.1942C24.831 28.976 25.474 29.602 26.2558 29.5907C26.6581 29.6048 27.0546 29.4689 27.3634 29.2111L27.0801 28.7749C26.8564 28.9533 26.5788 29.0553 26.2927 29.0581C25.8876 29.0921 25.5278 28.8003 25.4825 28.3953H27.4909C27.4994 28.3245 27.4994 28.2536 27.4994 28.1743ZM25.4853 27.9364C25.508 27.5625 25.8224 27.2735 26.1963 27.282C26.5674 27.2735 26.8733 27.5681 26.8818 27.9392L25.4853 27.9364ZM29.978 27.5115C29.7202 27.3614 29.4256 27.282 29.1282 27.2792C28.8052 27.2792 28.6126 27.3982 28.6126 27.5965C28.6126 27.7948 28.8166 27.8287 29.0715 27.8627L29.3548 27.9024C29.944 27.9874 30.3009 28.2366 30.3009 28.7125C30.3009 29.1884 29.8476 29.5963 29.0687 29.5963C28.6523 29.6077 28.2415 29.483 27.8988 29.2451L28.182 28.7862C28.4426 28.9788 28.7599 29.0779 29.0828 29.0694C29.4851 29.0694 29.7004 28.9505 29.7004 28.7409C29.7004 28.5879 29.5474 28.5029 29.2245 28.4576L28.9412 28.4179C28.335 28.333 28.0064 28.061 28.0064 27.6191C28.0064 27.0809 28.4483 26.7523 29.1395 26.7523C29.5276 26.7382 29.91 26.8373 30.2414 27.0356L29.978 27.5115ZM32.8106 27.3585H31.8503V28.5794C31.8503 28.8627 31.9467 29.0326 32.2413 29.0326C32.4254 29.027 32.6038 28.9731 32.7625 28.8797L32.9324 29.3839C32.7115 29.5227 32.4565 29.5935 32.1959 29.5935C31.4991 29.5935 31.2555 29.2196 31.2555 28.5907V27.3585H30.7059V26.8203H31.2555V25.9988H31.8503V26.8203H32.8106V27.3585ZM34.8473 26.7523C34.9889 26.7523 35.1334 26.7778 35.2665 26.826L35.0852 27.3925C34.9691 27.3472 34.8416 27.3217 34.717 27.3245C34.3318 27.3245 34.1505 27.5738 34.1505 28.0214V29.5368H33.5613V26.8316H34.1448V27.1602C34.2921 26.9081 34.5669 26.7552 34.8586 26.7637L34.8473 26.7523Z" fill="black"/>
<path d="M31.9612 6.18152H23.0383V22.2172H31.9612V6.18152Z" fill="#7673C0"/>
<path d="M23.6047 14.2016C23.6019 11.0715 25.0381 8.11419 27.4997 6.18231C23.0722 2.70096 16.6619 3.47145 13.1805 7.8989C9.69919 12.3264 10.4697 18.7367 14.8971 22.218C18.5966 25.1243 23.8002 25.1243 27.4997 22.218C25.0381 20.2862 23.6019 17.3288 23.6047 14.2016Z" fill="#EB001B"/>
<path d="M43.9966 14.2009C43.9966 19.8322 39.4275 24.3985 33.7962 24.3957C31.513 24.3957 29.2951 23.628 27.4991 22.2173C31.9266 18.736 32.6971 12.3257 29.2157 7.89822C28.7144 7.26087 28.1365 6.68301 27.4991 6.18163C31.9266 2.70028 38.3369 3.46793 41.8183 7.89539C43.2318 9.6913 43.9994 11.9121 43.9994 14.1981L43.9966 14.2009Z" fill="#00A1DF"/>
</svg>
