<svg width="54" height="34" viewBox="0 0 54 34" fill="none" xmlns="http://www.w3.org/2000/svg">
<rect width="54" height="34" rx="4" fill="white"/>
<path d="M17.0041 29.551V27.8497C17.0438 27.294 16.6245 26.8119 16.0665 26.7722C16.024 26.7694 15.9815 26.7694 15.939 26.7722C15.5566 26.7467 15.1941 26.931 14.9873 27.2543C14.8003 26.9424 14.4576 26.7552 14.0922 26.7722C13.7749 26.7552 13.4747 26.9083 13.299 27.1749V26.8403H12.7098V29.551H13.3047V28.0595C13.2565 27.7108 13.5001 27.3904 13.8486 27.345C13.8882 27.3393 13.9279 27.3365 13.9675 27.3393C14.3584 27.3393 14.5567 27.5945 14.5567 28.0539V29.5623H15.1516V28.0595C15.1063 27.7108 15.3527 27.3904 15.7011 27.345C15.7379 27.3393 15.7776 27.3393 15.8144 27.3393C16.2166 27.3393 16.4093 27.5945 16.4093 28.0539V29.5623L17.0041 29.551ZM25.8051 26.8403H24.8364V26.018H24.2415V26.8403H23.7033V27.379H24.2528V28.6266C24.2528 29.2561 24.4964 29.6304 25.1933 29.6304C25.4539 29.6304 25.7088 29.5595 25.9298 29.4206L25.7598 28.9159C25.6012 29.0094 25.4227 29.0633 25.2386 29.069C24.9553 29.069 24.8477 28.8875 24.8477 28.6153V27.379H25.8108L25.8051 26.8403ZM30.8302 26.7722C30.5385 26.7637 30.2637 26.9168 30.1164 27.1692V26.8403H29.5329V29.551H30.1221V28.0312C30.1221 27.5832 30.3147 27.3337 30.6886 27.3337C30.8132 27.3308 30.9407 27.3563 31.0568 27.4017L31.2381 26.8346C31.1022 26.7864 30.9605 26.7609 30.8189 26.7609L30.8302 26.7722ZM23.2331 27.0558C22.8988 26.8573 22.5164 26.7581 22.1284 26.7722C21.4429 26.7722 20.9953 27.1011 20.9953 27.6399C20.9953 28.0822 21.3239 28.3544 21.9301 28.4395L22.2133 28.4792C22.5363 28.5246 22.6892 28.6096 22.6892 28.7627C22.6892 28.9726 22.4739 29.0917 22.0717 29.0917C21.7488 29.1002 21.4315 29.0009 21.1709 28.8081L20.8877 29.2675C21.2304 29.5085 21.6411 29.6304 22.0604 29.6191C22.8422 29.6191 23.2954 29.2504 23.2954 28.7344C23.2954 28.2183 22.9385 28.0085 22.3493 27.9234L22.066 27.8837C21.8111 27.8497 21.6072 27.7987 21.6072 27.6172C21.6072 27.4357 21.7998 27.2996 22.1227 27.2996C22.4201 27.3025 22.7147 27.3819 22.9725 27.5321L23.2331 27.0558ZM39.0137 26.7722C38.722 26.7637 38.4472 26.9168 38.2999 27.1692V26.8403H37.7164V29.551H38.3056V28.0312C38.3056 27.5832 38.4982 27.3337 38.8721 27.3337C38.9967 27.3308 39.1242 27.3563 39.2403 27.4017L39.4216 26.8346C39.2856 26.7864 39.144 26.7609 39.0024 26.7609L39.0137 26.7722ZM31.4222 28.19C31.3939 28.947 31.9831 29.5822 32.7394 29.6077C32.7819 29.6105 32.8244 29.6077 32.8669 29.6077C33.221 29.6247 33.5694 29.5113 33.8413 29.2845L33.5581 28.8081C33.3541 28.9641 33.1048 29.0491 32.8499 29.052C32.3712 29.0123 32.0143 28.5926 32.0539 28.1134C32.0879 27.6881 32.425 27.3507 32.8499 27.3166C33.1048 27.3195 33.3541 27.4045 33.5581 27.5605L33.8413 27.0841C33.5694 26.8573 33.221 26.7439 32.8669 26.7609C32.1134 26.7184 31.4676 27.2968 31.4222 28.051C31.4194 28.0936 31.4194 28.1361 31.4222 28.1786V28.19ZM36.9402 28.19V26.8403H36.351V27.1692C36.1471 26.9083 35.8327 26.7609 35.5012 26.7722C34.7194 26.7722 34.0849 27.4074 34.0849 28.19C34.0849 28.9726 34.7194 29.6077 35.5012 29.6077C35.8327 29.6191 36.1471 29.4716 36.351 29.2107V29.5397H36.9402V28.19ZM34.7478 28.19C34.7733 27.7391 35.1613 27.3932 35.6146 27.4216C36.0678 27.4499 36.4105 27.8355 36.3822 28.2892C36.3567 28.7202 35.9998 29.0576 35.5692 29.0605C35.1217 29.0661 34.7506 28.706 34.7449 28.258C34.7449 28.2325 34.7449 28.2127 34.7478 28.19ZM27.6378 26.7722C26.856 26.7836 26.23 27.4272 26.2414 28.2098C26.2527 28.9924 26.8957 29.6191 27.6775 29.6077C28.0854 29.6276 28.4848 29.4971 28.8021 29.2391L28.5188 28.8024C28.295 28.9811 28.0174 29.0831 27.7313 29.086C27.3263 29.12 26.9665 28.828 26.9212 28.4225H28.9324C28.9324 28.3488 28.9324 28.275 28.9324 28.1956C28.9324 27.345 28.4055 26.7779 27.6463 26.7779L27.6378 26.7722ZM27.6378 27.2996C28.0089 27.2911 28.3148 27.586 28.3233 27.9575H26.907C26.9297 27.5775 27.2469 27.2855 27.6265 27.2996H27.6378ZM42.3987 28.1956V25.7515H41.8322V27.1692C41.6282 26.9083 41.3138 26.7609 40.9824 26.7722C40.2006 26.7722 39.5661 27.4074 39.5661 28.19C39.5661 28.9726 40.2006 29.6077 40.9824 29.6077C41.3138 29.6191 41.6282 29.4716 41.8322 29.2107V29.5397H42.3987V28.1956ZM40.2204 28.1956C40.2459 27.7448 40.634 27.3989 41.0872 27.4272C41.5404 27.4556 41.8832 27.8412 41.8549 28.2949C41.8294 28.7259 41.4724 29.0633 41.0419 29.0661C40.5943 29.0718 40.2233 28.7117 40.2176 28.2637C40.2176 28.2382 40.2176 28.2183 40.2204 28.1956ZM20.3268 28.1956V26.8403H19.7376V27.1692C19.5337 26.9083 19.2192 26.7609 18.8878 26.7722C18.106 26.7722 17.4715 27.4074 17.4715 28.19C17.4715 28.9726 18.106 29.6077 18.8878 29.6077C19.2192 29.6191 19.5337 29.4716 19.7376 29.2107V29.5397H20.3268V28.1956ZM18.1343 28.1956C18.1598 27.7448 18.5479 27.3989 19.0011 27.4272C19.4544 27.4556 19.7971 27.8412 19.7688 28.2949C19.7433 28.7259 19.3864 29.0633 18.9558 29.0661C18.5082 29.0746 18.1372 28.7174 18.1258 28.2694C18.1258 28.2467 18.1258 28.224 18.1287 28.1985H18.1343V28.1956Z" fill="black"/>
<path d="M31.9603 6.18378H23.0375V22.2354H31.9603V6.18378Z" fill="#FF5F00"/>
<path d="M23.6046 14.2116C23.6018 11.0784 25.0379 8.11814 27.4995 6.18435C23.0721 2.69955 16.6618 3.4708 13.1805 7.90265C9.69921 12.3345 10.4697 18.7512 14.8971 22.236C18.5965 25.1452 23.8001 25.1452 27.4995 22.236C25.0379 20.3022 23.6018 17.3419 23.6046 14.2116Z" fill="#EB001B"/>
<path d="M43.9999 14.211C43.9999 19.8479 39.4337 24.4187 33.8024 24.4187C31.5164 24.4187 29.2956 23.6503 27.4998 22.2354C31.9272 18.7506 32.6976 12.3339 29.2163 7.90209C28.715 7.2641 28.1371 6.68567 27.4998 6.18379C31.9272 2.69899 38.3374 3.46741 41.8187 7.89925C43.2322 9.69694 43.9999 11.92 43.9999 14.2082V14.211Z" fill="#F79E1B"/>
</svg>
