<svg width="54" height="34" viewBox="0 0 54 34" fill="none" xmlns="http://www.w3.org/2000/svg">
<rect width="54" height="34" rx="4" fill="white"/>
<path d="M43.8878 11.6821H36.1868C36.6354 14.2242 39.1027 16.6168 41.7943 16.6168H47.9252C48 16.3925 47.9999 16.0186 47.9999 15.7943C47.9999 13.5513 46.1308 11.6821 43.8878 11.6821Z" fill="url(#paint0_linear)"/>
<path d="M36.8612 17.0653V23.271H40.5996V19.9812H43.8893C45.6837 19.9812 47.2538 18.7102 47.7772 17.0653H36.8612Z" fill="#4FAD50"/>
<path d="M23.6991 11.6821V23.1963H26.9889C26.9889 23.1963 27.8113 23.1962 28.2599 22.3738C30.5029 17.9626 31.1758 16.6168 31.1758 16.6168H31.6244V23.1963H35.3628V11.6821H32.073C32.073 11.6821 31.2506 11.7569 30.802 12.5046C28.9328 16.3177 27.8861 18.2616 27.8861 18.2616H27.4374V11.6821H23.6991Z" fill="#4FAD50"/>
<path d="M8 23.271V11.7569H11.7383C11.7383 11.7569 12.7851 11.7569 13.3832 13.4018C14.8786 17.7383 15.0281 18.3364 15.0281 18.3364C15.0281 18.3364 15.3272 17.2897 16.673 13.4018C17.2711 11.7569 18.3179 11.7569 18.3179 11.7569H22.0562V23.271H18.3179V17.0654H17.8693L15.7758 23.271H14.1309L12.0374 17.0654H11.5888V23.271H8Z" fill="#4FAD50"/>
<defs>
<linearGradient id="paint0_linear" x1="36.1735" y1="14.1848" x2="47.9735" y2="14.1848" gradientUnits="userSpaceOnUse">
<stop stop-color="#27B1E6"/>
<stop offset="1" stop-color="#148ACA"/>
</linearGradient>
</defs>
</svg>
