<svg width="24" height="24" viewBox="0 0 24 24" fill="none" xmlns="http://www.w3.org/2000/svg">
<path fill-rule="evenodd" clip-rule="evenodd" d="M18 10.22C18 10.94 17.72 12 17.14 13.31C16.57 14.58 15.78 15.93 14.92 17.17C14.06 18.41 13.18 19.49 12.45 20.24C12.28 20.42 12.13 20.56 12 20.68C11.87 20.56 11.72 20.41 11.55 20.24C10.82 19.49 9.94 18.41 9.08 17.17C8.22 15.93 7.43 14.58 6.86 13.31C6.28 12 6 10.94 6 10.22C6 6.73 8.74 4 12 4C15.26 4 18 6.73 18 10.22ZM20 10.22C20 14.76 13.5 23 12 23C10.5 23 4 14.76 4 10.22C4 5.68 7.58 2 12 2C16.42 2 20 5.68 20 10.22ZM13 10C13 10.55 12.55 11 12 11C11.45 11 11 10.55 11 10C11 9.45 11.45 9 12 9C12.55 9 13 9.45 13 10ZM15 10C15 11.66 13.66 13 12 13C10.34 13 9 11.66 9 10C9 8.34 10.34 7 12 7C13.66 7 15 8.34 15 10Z" fill="#F7941E"/>
</svg>
