<svg width="24" height="24" viewBox="0 0 24 24" fill="none" xmlns="http://www.w3.org/2000/svg">
<path d="M17.0748 21.9971C16.6983 21.9776 16.3217 21.9094 15.955 21.7826C12.6749 20.6513 9.72176 18.6813 7.20468 15.9408C4.67768 13.1906 2.96328 10.0991 2.12095 6.74422C1.7642 5.33986 2.21014 3.86724 3.2804 2.89199L5.36145 1L9.79113 7.96329L6.14433 11.2889C6.84792 12.4494 7.68035 13.5612 8.66142 14.6145C9.63258 15.6678 10.6731 16.5943 11.7731 17.394L15.4199 14.0684L22 19.0714L19.9289 20.9634C19.1361 21.6753 18.1054 22.0361 17.0748 21.9971ZM13.4776 18.496C14.4785 19.0714 15.519 19.5493 16.6091 19.9199C17.3028 20.1539 18.0559 19.9979 18.591 19.5103L18.928 19.2079L15.5388 16.6235L13.4776 18.496ZM4.95515 4.03303L4.61822 4.33536C4.08309 4.82298 3.85517 5.56417 4.03354 6.26635C4.31102 7.37814 4.6975 8.45091 5.18308 9.49443L7.23441 7.62195L4.95515 4.03303Z" fill="#F7941E"/>
</svg>
