<svg width="54" height="34" viewBox="0 0 54 34" fill="none" xmlns="http://www.w3.org/2000/svg">
<rect width="54" height="34" rx="4" fill="white"/>
<path fill-rule="evenodd" clip-rule="evenodd" d="M16.7999 23.4496H13.4076L10.8637 13.4592C10.743 12.9997 10.4866 12.5934 10.1095 12.4019C9.16839 11.9207 8.13133 11.5377 7 11.3446V10.96H12.4648C13.219 10.96 13.7847 11.5377 13.879 12.2088L15.1989 19.4151L18.5896 10.96H21.8876L16.7999 23.4496ZM23.7719 23.4496H20.5681L23.2063 10.96H26.4101L23.7719 23.4496ZM30.5577 14.4202C30.652 13.7475 31.2176 13.3629 31.8776 13.3629C32.9146 13.2663 34.0443 13.4594 34.9871 13.939L35.5527 11.2499C34.61 10.8653 33.5729 10.6721 32.6318 10.6721C29.5223 10.6721 27.2596 12.4021 27.2596 14.8031C27.2596 16.6297 28.8623 17.5888 29.9937 18.1666C31.2176 18.7427 31.689 19.1273 31.5947 19.7034C31.5947 20.5676 30.652 20.9522 29.7108 20.9522C28.5795 20.9522 27.4482 20.6642 26.4128 20.1829L25.8471 22.8737C26.9784 23.3532 28.2024 23.5464 29.3337 23.5464C32.8203 23.6413 34.9871 21.9129 34.9871 19.3188C34.9871 16.0519 30.5577 15.8604 30.5577 14.4202ZM46.1986 23.4496L43.6547 10.96H40.9223C40.3567 10.96 39.791 11.3446 39.6024 11.9207L34.8918 23.4496H38.1899L38.8482 21.6247H42.9005L43.2776 23.4496H46.1986ZM41.3928 14.3234L42.3339 19.0306H39.6958L41.3928 14.3234Z" fill="#172B85"/>
</svg>
