<svg width="19" height="19" viewBox="0 0 19 19" fill="none" xmlns="http://www.w3.org/2000/svg">
<path d="M18.5 9.49999C18.5 4.52862 14.4714 0.5 9.5 0.5V18V18.5C9.50029 18.5 9.50058 18.5 9.50086 18.5C14.4718 18.4995 18.5 14.4711 18.5 9.49999Z" fill="white" stroke="#E6E6E6"/>
<path fill-rule="evenodd" clip-rule="evenodd" d="M11.832 7.75066V6.25198C11.832 5.00705 10.7873 4 9.50411 4C8.21269 4 7.16804 5.00705 7.16804 6.25198V7.75066H6V13H13V7.75066H11.832ZM9.89072 10.6449V11.5013H9.10928V10.6449C8.87897 10.5181 8.72268 10.2802 8.72268 10.0026C8.72268 9.59031 9.06816 9.24934 9.50411 9.24934C9.93184 9.24934 10.2855 9.58238 10.2855 10.0026C10.2773 10.2722 10.121 10.5181 9.89072 10.6449ZM7.94125 6.25198V7.75066H11.0505V6.25198C11.0505 5.42731 10.3514 4.7533 9.49589 4.7533C8.64042 4.7533 7.94125 5.41938 7.94125 6.25198Z" fill="#333333"/>
</svg>
