<svg width="17" height="17" viewBox="0 0 17 17" fill="none" xmlns="http://www.w3.org/2000/svg">
<path fill-rule="evenodd" clip-rule="evenodd" d="M8.5 0C13.1952 0 17 3.80476 17 8.49999C17 13.1952 13.1952 17 8.5 17C3.80476 17.0081 0 13.1952 0 8.49999C0 3.80476 3.80476 0 8.5 0Z" fill="white"/>
<path fill-rule="evenodd" clip-rule="evenodd" d="M8.49837 16.0555L8.5 16.0555C12.6736 16.0555 16.0556 12.6736 16.0556 8.49999C16.0556 4.32636 12.6736 0.944444 8.5 0.944444C4.32636 0.944444 0.944444 4.32636 0.944444 8.49999C0.944444 12.6751 4.32749 16.0627 8.49837 16.0555ZM17 8.49999C17 3.80476 13.1952 0 8.5 0C3.80476 0 0 3.80476 0 8.49999C0 13.1952 3.80476 17.0081 8.5 17C13.1952 17 17 13.1952 17 8.49999Z" fill="#FF5533"/>
<path d="M9.60317 8.71883H7.39683L7 4H10L9.60317 8.71883ZM7 11.5341C7 10.9899 7.14286 10.6123 7.42857 10.4013C7.72487 10.1792 8.07937 10.0681 8.49206 10.0681C8.89418 10.0681 9.2381 10.1792 9.52381 10.4013C9.80952 10.6123 9.95238 10.9899 9.95238 11.5341C9.95238 12.056 9.80952 12.4336 9.52381 12.6668C9.2381 12.8889 8.89418 13 8.49206 13C8.07937 13 7.72487 12.8889 7.42857 12.6668C7.14286 12.4336 7 12.056 7 11.5341Z" fill="#FF5533"/>
</svg>
