<svg width="9" height="7" viewBox="0 0 9 7" fill="none" xmlns="http://www.w3.org/2000/svg">
<path fill-rule="evenodd" clip-rule="evenodd" d="M8.66441 1.99547L7.54576 3.15686L4.16949 6.66214C3.9661 6.8733 3.68136 7 3.37627 7C3.06102 7 2.78644 6.8733 2.58305 6.66214L0.325424 4.32881C0.122034 4.11765 0 3.82202 0 3.50528C0 2.85068 0.508475 2.33333 1.12881 2.33333C1.44407 2.33333 1.71864 2.46003 1.92203 2.67119L3.37627 4.181L5.95932 1.5098L7.08813 0.337858C7.28136 0.126697 7.55593 0 7.87119 0C8.49152 0 9 0.517345 9 1.16139C8.98983 1.48869 8.8678 1.78431 8.66441 1.99547Z" fill="#8DC63F"/>
</svg>
